<svg width="44" height="41" viewBox="0 0 44 41" fill="none" xmlns="http://www.w3.org/2000/svg">
<rect y="0.5" width="44" height="40" rx="4" fill="#1D242D"/>
<mask id="mask0_1_2856" style="mask-type:alpha" maskUnits="userSpaceOnUse" x="10" y="8" width="24" height="25">
<rect x="10" y="8.5" width="24" height="24" fill="#D9D9D9"/>
</mask>
<g mask="url(#mask0_1_2856)">
<path d="M29.6 29.5L23.3 23.2C22.8 23.6 22.225 23.9167 21.575 24.15C20.925 24.3833 20.2333 24.5 19.5 24.5C17.6833 24.5 16.1458 23.8708 14.8875 22.6125C13.6292 21.3542 13 19.8167 13 18C13 16.1833 13.6292 14.6458 14.8875 13.3875C16.1458 12.1292 17.6833 11.5 19.5 11.5C21.3167 11.5 22.8542 12.1292 24.1125 13.3875C25.3708 14.6458 26 16.1833 26 18C26 18.7333 25.8833 19.425 25.65 20.075C25.4167 20.725 25.1 21.3 24.7 21.8L31 28.1L29.6 29.5ZM19.5 22.5C20.75 22.5 21.8125 22.0625 22.6875 21.1875C23.5625 20.3125 24 19.25 24 18C24 16.75 23.5625 15.6875 22.6875 14.8125C21.8125 13.9375 20.75 13.5 19.5 13.5C18.25 13.5 17.1875 13.9375 16.3125 14.8125C15.4375 15.6875 15 16.75 15 18C15 19.25 15.4375 20.3125 16.3125 21.1875C17.1875 22.0625 18.25 22.5 19.5 22.5Z" fill="white"/>
</g>
</svg>
