<svg width="44" height="44" viewBox="0 0 44 44" fill="none" xmlns="http://www.w3.org/2000/svg">
<rect width="44" height="44" rx="12" fill="#0217EB" fill-opacity="0.1"/>
<mask id="mask0_9_1821" style="mask-type:alpha" maskUnits="userSpaceOnUse" x="10" y="10" width="24" height="24">
<rect x="10" y="10" width="24" height="24" fill="#D9D9D9"/>
</mask>
<g mask="url(#mask0_9_1821)">
<path d="M16.5 26C17.2833 26 18.0458 26.0875 18.7875 26.2625C19.5292 26.4375 20.2667 26.7 21 27.05V17.2C20.3167 16.8 19.5917 16.5 18.825 16.3C18.0583 16.1 17.2833 16 16.5 16C15.9 16 15.3042 16.0583 14.7125 16.175C14.1208 16.2917 13.55 16.4667 13 16.7V26.6C13.5833 26.4 14.1625 26.25 14.7375 26.15C15.3125 26.05 15.9 26 16.5 26ZM23 27.05C23.7333 26.7 24.4708 26.4375 25.2125 26.2625C25.9542 26.0875 26.7167 26 27.5 26C28.1 26 28.6875 26.05 29.2625 26.15C29.8375 26.25 30.4167 26.4 31 26.6V16.7C30.45 16.4667 29.8792 16.2917 29.2875 16.175C28.6958 16.0583 28.1 16 27.5 16C26.7167 16 25.9417 16.1 25.175 16.3C24.4083 16.5 23.6833 16.8 23 17.2V27.05ZM22 30C21.2 29.3667 20.3333 28.875 19.4 28.525C18.4667 28.175 17.5 28 16.5 28C15.8 28 15.1125 28.0917 14.4375 28.275C13.7625 28.4583 13.1167 28.7167 12.5 29.05C12.15 29.2333 11.8125 29.225 11.4875 29.025C11.1625 28.825 11 28.5333 11 28.15V16.1C11 15.9167 11.0458 15.7417 11.1375 15.575C11.2292 15.4083 11.3667 15.2833 11.55 15.2C12.3167 14.8 13.1167 14.5 13.95 14.3C14.7833 14.1 15.6333 14 16.5 14C17.4667 14 18.4125 14.125 19.3375 14.375C20.2625 14.625 21.15 15 22 15.5C22.85 15 23.7375 14.625 24.6625 14.375C25.5875 14.125 26.5333 14 27.5 14C28.3667 14 29.2167 14.1 30.05 14.3C30.8833 14.5 31.6833 14.8 32.45 15.2C32.6333 15.2833 32.7708 15.4083 32.8625 15.575C32.9542 15.7417 33 15.9167 33 16.1V28.15C33 28.5333 32.8375 28.825 32.5125 29.025C32.1875 29.225 31.85 29.2333 31.5 29.05C30.8833 28.7167 30.2375 28.4583 29.5625 28.275C28.8875 28.0917 28.2 28 27.5 28C26.5 28 25.5333 28.175 24.6 28.525C23.6667 28.875 22.8 29.3667 22 30Z" fill="#0217EB"/>
</g>
</svg>
