<svg width="38" height="34" viewBox="0 0 38 34" fill="none" xmlns="http://www.w3.org/2000/svg">
<rect width="38" height="34" rx="4" fill="white"/>
<mask id="mask0_1_4438" style="mask-type:alpha" maskUnits="userSpaceOnUse" x="10" y="8" width="18" height="18">
<rect x="10" y="8" width="18" height="18" fill="#D9D9D9"/>
</mask>
<g mask="url(#mask0_1_4438)">
<path d="M24.7 23.75L19.975 19.025C19.6 19.325 19.1687 19.5625 18.6812 19.7375C18.1937 19.9125 17.675 20 17.125 20C15.7625 20 14.6094 19.5281 13.6656 18.5844C12.7219 17.6406 12.25 16.4875 12.25 15.125C12.25 13.7625 12.7219 12.6094 13.6656 11.6656C14.6094 10.7219 15.7625 10.25 17.125 10.25C18.4875 10.25 19.6406 10.7219 20.5844 11.6656C21.5281 12.6094 22 13.7625 22 15.125C22 15.675 21.9125 16.1937 21.7375 16.6812C21.5625 17.1687 21.325 17.6 21.025 17.975L25.75 22.7L24.7 23.75ZM17.125 18.5C18.0625 18.5 18.8594 18.1719 19.5156 17.5156C20.1719 16.8594 20.5 16.0625 20.5 15.125C20.5 14.1875 20.1719 13.3906 19.5156 12.7344C18.8594 12.0781 18.0625 11.75 17.125 11.75C16.1875 11.75 15.3906 12.0781 14.7344 12.7344C14.0781 13.3906 13.75 14.1875 13.75 15.125C13.75 16.0625 14.0781 16.8594 14.7344 17.5156C15.3906 18.1719 16.1875 18.5 17.125 18.5Z" fill="#1D242D"/>
</g>
</svg>
