<svg xmlns="http://www.w3.org/2000/svg" xmlns:xlink="http://www.w3.org/1999/xlink" width="221" height="197" viewBox="0 0 221 197">
  <defs>
    <clipPath id="clip-path">
      <rect id="Rectangle_1" data-name="Rectangle 1" width="221" height="197" transform="translate(-161.019 -194.633)" fill="#fff" stroke="#707070" stroke-width="1"/>
    </clipPath>
  </defs>
  <g id="Mask_Group_1" data-name="Mask Group 1" transform="translate(161.019 194.633)" clip-path="url(#clip-path)">
    <path id="_161193019716313443614150" data-name="161193019716313443614150" d="M284.63,127.574a5.2,5.2,0,0,0-1.873-1.524,5.511,5.511,0,0,0-2.4-.548H129.074V106.055a4.712,4.712,0,0,0-.39-1.9,4.935,4.935,0,0,0-1.129-1.611L110.734,86.641A5.379,5.379,0,0,0,107.2,84.97H82.464a5.459,5.459,0,0,0-3.748,1.468,4.822,4.822,0,0,0,0,7.088,5.459,5.459,0,0,0,3.748,1.468h22.4l13.6,13.132V220.3H100.416a24.463,24.463,0,0,0-9.173,1.42,23.466,23.466,0,0,0-7.852,4.7,22,22,0,0,0-5.276,7.236,20.889,20.889,0,0,0,0,17.223,22,22,0,0,0,5.276,7.236,23.466,23.466,0,0,0,7.852,4.7,24.463,24.463,0,0,0,9.173,1.42h18.658a22.891,22.891,0,0,0,8.535,12.955,25.449,25.449,0,0,0,30.458,0A22.888,22.888,0,0,0,166.6,264.24h33.182a23.021,23.021,0,0,0,9.612,13.739,25.446,25.446,0,0,0,16.854,4.167,24.879,24.879,0,0,0,15.493-7.532,22.131,22.131,0,0,0,0-30.772,24.879,24.879,0,0,0-15.493-7.532,25.446,25.446,0,0,0-16.854,4.167,23.021,23.021,0,0,0-9.612,13.739H166.6a22.888,22.888,0,0,0-8.535-12.955,25.449,25.449,0,0,0-30.458,0,22.891,22.891,0,0,0-8.535,12.955H100.416a13.314,13.314,0,0,1-5.043-.721,12.791,12.791,0,0,1-4.332-2.545,11.979,11.979,0,0,1-2.917-3.956,11.366,11.366,0,0,1,0-9.447,11.978,11.978,0,0,1,2.917-3.956,12.791,12.791,0,0,1,4.332-2.545,13.314,13.314,0,0,1,5.043-.721H237.454a20.131,20.131,0,0,0,11.424-3.484,18.4,18.4,0,0,0,7.058-9.18l29.471-85.575a4.686,4.686,0,0,0,.2-2.345,4.806,4.806,0,0,0-.973-2.166ZM223.567,246.129a14.349,14.349,0,0,1,7.657,2.2,13.215,13.215,0,0,1,5.076,5.848,12.374,12.374,0,0,1,.785,7.53,12.827,12.827,0,0,1-3.772,6.672,14.045,14.045,0,0,1-7.056,3.567,14.522,14.522,0,0,1-7.963-.742,13.643,13.643,0,0,1-6.185-4.8,12.531,12.531,0,0,1-2.323-7.24,12.683,12.683,0,0,1,4.037-9.215A14.194,14.194,0,0,1,223.567,246.129Zm-80.711,0a14.349,14.349,0,0,1,7.657,2.2,13.215,13.215,0,0,1,5.076,5.848,12.375,12.375,0,0,1,.785,7.53,12.827,12.827,0,0,1-3.772,6.672,14.045,14.045,0,0,1-7.056,3.567,14.522,14.522,0,0,1-7.963-.742,13.643,13.643,0,0,1-6.185-4.8,12.531,12.531,0,0,1-2.323-7.24,12.683,12.683,0,0,1,4.037-9.215,14.194,14.194,0,0,1,9.745-3.817Zm103.009-31.644a8.353,8.353,0,0,1-3.2,4.211,9.143,9.143,0,0,1-5.213,1.6H129.074V135.527H273.039Z" transform="translate(-231.549 -279.958)" fill="#fff"/>
  </g>
</svg>
