<svg width="30" height="22" viewBox="0 0 30 22" fill="none" xmlns="http://www.w3.org/2000/svg">
<path d="M10.5082 21.2208C10.2637 21.2208 10.0345 21.1823 9.82065 21.1053C9.60676 21.0296 9.40815 20.9 9.22482 20.7167L1.34149 12.8333C1.00537 12.4972 0.844652 12.0615 0.859318 11.5262C0.875207 10.9921 1.05121 10.5569 1.38732 10.2208C1.72343 9.88473 2.15121 9.71667 2.67065 9.71667C3.1901 9.71667 3.61787 9.88473 3.95398 10.2208L10.5082 16.775L26.0457 1.2375C26.3818 0.901393 26.8175 0.733337 27.3528 0.733337C27.8869 0.733337 28.322 0.901393 28.6582 1.2375C28.9943 1.57362 29.1623 2.00873 29.1623 2.54284C29.1623 3.07817 28.9943 3.51389 28.6582 3.85L11.7915 20.7167C11.6082 20.9 11.4095 21.0296 11.1957 21.1053C10.9818 21.1823 10.7526 21.2208 10.5082 21.2208Z" fill="#0217EB"/>
</svg>
