<svg width="44" height="44" viewBox="0 0 44 44" fill="none" xmlns="http://www.w3.org/2000/svg">
<rect width="44" height="44" rx="12" fill="#0217EB" fill-opacity="0.1"/>
<mask id="mask0_9_1830" style="mask-type:alpha" maskUnits="userSpaceOnUse" x="10" y="10" width="24" height="24">
<rect x="10" y="10" width="24" height="24" fill="#D9D9D9"/>
</mask>
<g mask="url(#mask0_9_1830)">
<path d="M17 32V26H15.4C14.7333 26 14.1667 25.7667 13.7 25.3C13.2333 24.8333 13 24.2667 13 23.6C13 23.1167 13.1333 22.6708 13.4 22.2625C13.6667 21.8542 14.0167 21.55 14.45 21.35L21 18.45V17.8C20.4 17.5833 19.9167 17.2208 19.55 16.7125C19.1833 16.2042 19 15.6333 19 15C19 14.1667 19.2917 13.4583 19.875 12.875C20.4583 12.2917 21.1667 12 22 12C22.8333 12 23.5417 12.2917 24.125 12.875C24.7083 13.4583 25 14.1667 25 15H23C23 14.7167 22.9042 14.4792 22.7125 14.2875C22.5208 14.0958 22.2833 14 22 14C21.7167 14 21.4792 14.0958 21.2875 14.2875C21.0958 14.4792 21 14.7167 21 15C21 15.2833 21.0958 15.5208 21.2875 15.7125C21.4792 15.9042 21.7167 16 22 16C22.2833 16 22.5208 16.0958 22.7125 16.2875C22.9042 16.4792 23 16.7167 23 17V18.45L29.55 21.35C29.9833 21.55 30.3333 21.8542 30.6 22.2625C30.8667 22.6708 31 23.1167 31 23.6C31 24.2667 30.7667 24.8333 30.3 25.3C29.8333 25.7667 29.2667 26 28.6 26H27V32H17ZM15.4 24H17V23H27V24H28.6C28.7167 24 28.8125 23.9583 28.8875 23.875C28.9625 23.7917 29 23.6833 29 23.55C29 23.4667 28.9792 23.3958 28.9375 23.3375C28.8958 23.2792 28.8333 23.2333 28.75 23.2L22 20.2L15.25 23.2C15.1667 23.2333 15.1042 23.2792 15.0625 23.3375C15.0208 23.3958 15 23.4667 15 23.55C15 23.6833 15.0375 23.7917 15.1125 23.875C15.1875 23.9583 15.2833 24 15.4 24ZM19 30H25V25H19V30Z" fill="#0217EB"/>
</g>
</svg>
