<svg width="44" height="44" viewBox="0 0 44 44" fill="none" xmlns="http://www.w3.org/2000/svg">
<rect width="44" height="44" rx="12" fill="#0217EB" fill-opacity="0.1"/>
<mask id="mask0_9_1876" style="mask-type:alpha" maskUnits="userSpaceOnUse" x="10" y="10" width="24" height="24">
<rect x="10" y="10" width="24" height="24" fill="#D9D9D9"/>
</mask>
<g mask="url(#mask0_9_1876)">
<path d="M18 32C17.45 32 16.9792 31.8042 16.5875 31.4125C16.1958 31.0208 16 30.55 16 30V29C16 28.2167 16.1708 27.4917 16.5125 26.825C16.8542 26.1583 17.3 25.6 17.85 25.15L17.25 21H15C14.45 21 13.9792 20.8042 13.5875 20.4125C13.1958 20.0208 13 19.55 13 19V15C13 14.45 13.1958 13.9792 13.5875 13.5875C13.9792 13.1958 14.45 13 15 13H20V12H24V13H28L26.15 25.15C26.7 25.6 27.1458 26.1583 27.4875 26.825C27.8292 27.4917 28 28.2167 28 29V30C28 30.55 27.8042 31.0208 27.4125 31.4125C27.0208 31.8042 26.55 32 26 32H18ZM16.95 19L16.3 15H15V19H16.95ZM22 29C22.2833 29 22.5208 28.9042 22.7125 28.7125C22.9042 28.5208 23 28.2833 23 28C23 27.7167 22.9042 27.4792 22.7125 27.2875C22.5208 27.0958 22.2833 27 22 27C21.7167 27 21.4792 27.0958 21.2875 27.2875C21.0958 27.4792 21 27.7167 21 28C21 28.2833 21.0958 28.5208 21.2875 28.7125C21.4792 28.9042 21.7167 29 22 29ZM19.7 24H24.3L25.65 15H18.35L19.7 24ZM18 30H26V29C26 28.1667 25.7083 27.4583 25.125 26.875C24.5417 26.2917 23.8333 26 23 26H21C20.1667 26 19.4583 26.2917 18.875 26.875C18.2917 27.4583 18 28.1667 18 29V30Z" fill="#0217EB"/>
</g>
</svg>
