<svg width="44" height="44" viewBox="0 0 44 44" fill="none" xmlns="http://www.w3.org/2000/svg">
<rect width="44" height="44" rx="12" fill="#0217EB" fill-opacity="0.1"/>
<mask id="mask0_9_1812" style="mask-type:alpha" maskUnits="userSpaceOnUse" x="10" y="10" width="24" height="24">
<rect x="10" y="10" width="24" height="24" fill="#D9D9D9"/>
</mask>
<g mask="url(#mask0_9_1812)">
<path d="M14.5499 29C13.6999 29 13.0416 28.7042 12.5749 28.1125C12.1082 27.5208 11.9332 26.8 12.0499 25.95L13.0999 18.45C13.2499 17.45 13.6957 16.625 14.4374 15.975C15.1791 15.325 16.0499 15 17.0499 15H26.9499C27.9499 15 28.8207 15.325 29.5624 15.975C30.3041 16.625 30.7499 17.45 30.8999 18.45L31.9499 25.95C32.0666 26.8 31.8916 27.5208 31.4249 28.1125C30.9582 28.7042 30.2999 29 29.4499 29C29.0999 29 28.7749 28.9375 28.4749 28.8125C28.1749 28.6875 27.8999 28.5 27.6499 28.25L25.3999 26H18.5999L16.3499 28.25C16.0999 28.5 15.8249 28.6875 15.5249 28.8125C15.2249 28.9375 14.8999 29 14.5499 29ZM14.9499 26.85L17.7999 24H26.1999L29.0499 26.85C29.0832 26.8833 29.2166 26.9333 29.4499 27C29.6332 27 29.7791 26.9458 29.8874 26.8375C29.9957 26.7292 30.0332 26.5833 29.9999 26.4L28.8999 18.7C28.8332 18.2167 28.6166 17.8125 28.2499 17.4875C27.8832 17.1625 27.4499 17 26.9499 17H17.0499C16.5499 17 16.1166 17.1625 15.7499 17.4875C15.3832 17.8125 15.1666 18.2167 15.0999 18.7L13.9999 26.4C13.9666 26.5833 14.0041 26.7292 14.1124 26.8375C14.2207 26.9458 14.3666 27 14.5499 27C14.5832 27 14.7166 26.95 14.9499 26.85ZM26.9999 23C27.2832 23 27.5207 22.9042 27.7124 22.7125C27.9041 22.5208 27.9999 22.2833 27.9999 22C27.9999 21.7167 27.9041 21.4792 27.7124 21.2875C27.5207 21.0958 27.2832 21 26.9999 21C26.7166 21 26.4791 21.0958 26.2874 21.2875C26.0957 21.4792 25.9999 21.7167 25.9999 22C25.9999 22.2833 26.0957 22.5208 26.2874 22.7125C26.4791 22.9042 26.7166 23 26.9999 23ZM24.9999 20C25.2832 20 25.5207 19.9042 25.7124 19.7125C25.9041 19.5208 25.9999 19.2833 25.9999 19C25.9999 18.7167 25.9041 18.4792 25.7124 18.2875C25.5207 18.0958 25.2832 18 24.9999 18C24.7166 18 24.4791 18.0958 24.2874 18.2875C24.0957 18.4792 23.9999 18.7167 23.9999 19C23.9999 19.2833 24.0957 19.5208 24.2874 19.7125C24.4791 19.9042 24.7166 20 24.9999 20ZM17.7499 23H19.2499V21.25H20.9999V19.75H19.2499V18H17.7499V19.75H15.9999V21.25H17.7499V23Z" fill="#0217EB"/>
</g>
</svg>
