<svg width="1414" height="834" viewBox="0 0 1414 834" fill="none" xmlns="http://www.w3.org/2000/svg">
<g clip-path="url(#clip0_9_4584)">
<rect width="1442" height="834" transform="translate(-28)" fill="#F2F3F7"/>
<path d="M94.25 417C94.25 420.807 93.121 424.529 91.0058 427.695C88.8906 430.86 85.8841 433.328 82.3667 434.785C78.8492 436.242 74.9786 436.623 71.2445 435.88C67.5104 435.137 64.0804 433.304 61.3882 430.612C58.696 427.92 56.8626 424.49 56.1199 420.755C55.3771 417.021 55.7583 413.151 57.2153 409.633C58.6723 406.116 61.1396 403.109 64.3053 400.994C67.4709 398.879 71.1927 397.75 75 397.75C80.1054 397.75 85.0017 399.778 88.6118 403.388C92.2219 406.998 94.25 411.895 94.25 417V417ZM86 415.625H69.2938L76.9663 407.915L75 406L64 417L75 428L76.9663 426.038L69.2938 418.375H86V415.625Z" fill="white" fill-opacity="0.3"/>
<path d="M1294.75 417C1294.75 420.807 1295.88 424.529 1297.99 427.695C1300.11 430.86 1303.12 433.328 1306.63 434.785C1310.15 436.242 1314.02 436.623 1317.76 435.88C1321.49 435.137 1324.92 433.304 1327.61 430.612C1330.3 427.92 1332.14 424.49 1332.88 420.755C1333.62 417.021 1333.24 413.151 1331.78 409.633C1330.33 406.116 1327.86 403.109 1324.69 400.994C1321.53 398.879 1317.81 397.75 1314 397.75C1308.89 397.75 1304 399.778 1300.39 403.388C1296.78 406.998 1294.75 411.895 1294.75 417V417ZM1303 415.625H1319.71L1312.03 407.915L1314 406L1325 417L1314 428L1312.03 426.038L1319.71 418.375H1303V415.625Z" fill="white"/>
<g clip-path="url(#clip1_9_4584)">
<path d="M1414 -31H-28V834.2H1414V-31Z" fill="#F2F3F7"/>
<path d="M668.9 494.556H557.842V729.761H668.9V494.556Z" fill="#E1E5EF"/>
<path opacity="0.68" d="M1044.41 528.424H1004.66V732.333H1044.41V528.424Z" fill="#E1E5EF"/>
<path d="M1113.86 596.299V509.207V422.12H1101.83V335.028V247.936H1091.98V206.598H1085.1V247.936H1075.24V335.028H1066.5V422.12V509.207H1055.91V596.299V731.472H1133.8V596.299H1113.86Z" fill="#E1E5EF"/>
<path d="M1094.86 334.672H1075.24V335.378H1094.86V334.672Z" fill="#8296C9"/>
<path d="M1101.83 421.764H1075.24V422.47H1101.83V421.764Z" fill="#8296C9"/>
<path d="M1101.84 508.856H1066.5V509.563H1101.84V508.856Z" fill="#8296C9"/>
<path d="M1113.86 595.948H1069.93V596.655H1113.86V595.948Z" fill="#8296C9"/>
<path d="M510.581 475.19V436.693H497.892V397.437H489.225V358.181H474.349V318.925H470.695V358.181H455.819V397.437H447.152V436.693H434.458V475.19H422.283V732.332H522.761V475.19H510.581Z" fill="#E1E5EF"/>
<path d="M489.178 474.892H434.459V475.488H489.178V474.892Z" fill="#8296C9"/>
<path d="M497.887 436.4H464.89V436.996H497.887V436.4Z" fill="#8296C9"/>
<path d="M457.872 436.4H447.153V436.996H457.872V436.4Z" fill="#8296C9"/>
<path d="M481.391 397.139H455.819V397.735H481.391V397.139Z" fill="#8296C9"/>
<path d="M498.094 477.367H497.498V553.024H498.094V477.367Z" fill="#8296C9"/>
<path d="M498.094 558.038H497.498V589.575H498.094V558.038Z" fill="#8296C9"/>
<path d="M1206.25 529.203H1147.56V732.337H1206.25V529.203Z" fill="#E1E5EF"/>
<path d="M1167.63 658.857H1166.93V727.021H1167.63V658.857Z" fill="#8296C9"/>
<path d="M1167.63 574.745H1166.93V652.561H1167.63V574.745Z" fill="#8296C9"/>
<path d="M1167.63 531.702H1166.93V563.729H1167.63V531.702Z" fill="#8296C9"/>
<path d="M1281.24 618.26V591.242H1229.67V618.26H1211.74V732.332H1299.17V618.26H1281.24Z" fill="#E1E5EF"/>
<path d="M1274.76 617.909H1263.64V618.616H1274.76V617.909Z" fill="#8296C9"/>
<path d="M1259.55 617.909H1229.67V618.616H1259.55V617.909Z" fill="#8296C9"/>
<path d="M1281.59 669.177H1280.88V727.016H1281.59V669.177Z" fill="#8296C9"/>
<path d="M1281.59 624.023H1280.88V661.789H1281.59V624.023Z" fill="#8296C9"/>
<path d="M734.751 142.766C649.673 142.766 580.731 211.722 580.731 296.786C580.731 462.135 734.751 685.164 734.751 685.164C734.751 685.164 888.776 462.135 888.776 296.786C888.776 211.736 819.814 142.766 734.751 142.766ZM734.751 362.31C719.654 362.31 704.896 357.833 692.344 349.446C679.791 341.058 670.008 329.137 664.231 315.189C658.454 301.242 656.942 285.894 659.888 271.087C662.833 256.281 670.104 242.68 680.779 232.005C691.454 221.33 705.056 214.061 719.862 211.116C734.669 208.172 750.017 209.684 763.964 215.462C777.912 221.24 789.832 231.024 798.219 243.577C806.606 256.13 811.082 270.888 811.081 285.985C811.079 306.228 803.037 325.642 788.722 339.955C774.408 354.269 754.994 362.31 734.751 362.31Z" fill="white"/>
<path d="M429 167H543C537.735 160.668 529.009 157.331 520.832 158.863C519.434 147.722 509.461 138.192 498.089 137.105C486.718 136.018 475.054 143.486 471.493 154.152C468.168 152.199 464.123 151.566 460.429 152.742C458.598 153.332 456.911 154.303 455.478 155.59C454.046 156.878 452.9 158.453 452.115 160.214C448.654 156.645 442.989 154.515 438.091 155.595C433.193 156.676 430.563 162.316 429 167Z" fill="white"/>
<path d="M304.972 597.697L236.404 628.926L167.837 597.697L99.2703 628.926V732.332H118.872H128.947H206.733H215.221H236.404H373.539V628.926L304.972 597.697Z" fill="#E1E5EF"/>
<mask id="mask0_9_4584" style="mask-type:luminance" maskUnits="userSpaceOnUse" x="695" y="253" width="357" height="480">
<path d="M1051.73 253.281H695.052V732.337H1051.73V253.281Z" fill="white"/>
</mask>
<g mask="url(#mask0_9_4584)">
<path d="M980.924 277.689H746.541C730.85 277.689 718.129 290.409 718.129 306.101V798.082C718.129 813.774 730.85 826.495 746.541 826.495H980.924C996.616 826.495 1009.34 813.774 1009.34 798.082V306.101C1009.34 290.409 996.616 277.689 980.924 277.689Z" fill="#8296C9"/>
<path d="M893.49 302.809H849.552C848.842 302.809 848.161 302.527 847.659 302.025C847.157 301.522 846.875 300.841 846.875 300.131C846.875 299.421 847.157 298.74 847.659 298.238C848.161 297.736 848.842 297.454 849.552 297.454H893.49C893.842 297.454 894.19 297.523 894.515 297.658C894.84 297.792 895.135 297.99 895.383 298.238C895.632 298.487 895.829 298.782 895.964 299.107C896.098 299.432 896.168 299.78 896.168 300.131C896.168 300.841 895.885 301.522 895.383 302.025C894.881 302.527 894.2 302.809 893.49 302.809Z" fill="#F2F3F7"/>
<path d="M984.298 320.094H741.249C740.758 320.094 740.359 320.492 740.359 320.983V800.851C740.359 801.343 740.758 801.741 741.249 801.741H984.298C984.789 801.741 985.187 801.343 985.187 800.851V320.983C985.187 320.492 984.789 320.094 984.298 320.094Z" fill="#F2F3F7"/>
<path d="M832.575 307.413C836.599 307.413 839.862 304.151 839.862 300.126C839.862 296.102 836.599 292.839 832.575 292.839C828.55 292.839 825.288 296.102 825.288 300.126C825.288 304.151 828.55 307.413 832.575 307.413Z" fill="#F2F3F7"/>
</g>
<path d="M661.246 354.672L644.923 410.91L577.591 415.207L600.581 358.503L661.246 354.672Z" fill="#F1CA89"/>
<path d="M644.923 410.91L693.321 439.145L624.989 445.273L577.591 415.207L644.923 410.91Z" fill="#F1B873"/>
<path d="M661.246 354.672L706.938 381.09L693.321 439.144L644.923 410.91L661.246 354.672Z" fill="#E5A251"/>
<path d="M623.678 357.042L609.993 393.813L623.678 392.895L638.314 356.119L623.678 357.042Z" fill="#F2F3F7"/>
<path d="M633.123 540.075C633.123 540.075 614.165 611.003 611.171 636.449C608.176 661.896 607.176 728.165 607.176 728.165H615.309L637.348 639.285L664.616 595.669L671.009 638.482C671.193 639.717 671.502 640.93 671.932 642.102L703.396 728.165H712.226C712.226 728.165 699.955 631.897 700.334 625.783C700.714 619.669 708.025 540.071 708.025 540.071L633.123 540.075Z" fill="#39548B"/>
<path d="M686.875 432.492C686.875 432.492 667.889 429.008 617.577 437.972L613.367 466.548L646.533 470.138C646.533 470.138 633.319 509.192 630.137 545.31C630.137 545.31 671.239 556.365 710.692 547.425L715.609 482.535L735.317 494.974L753.851 474.181C753.851 474.181 730.794 440.087 686.875 432.492Z" fill="#F9DD89"/>
<mask id="mask1_9_4584" style="mask-type:luminance" maskUnits="userSpaceOnUse" x="613" y="431" width="141" height="120">
<path d="M686.876 432.492C686.876 432.492 667.889 429.008 617.578 437.972L613.367 466.548L646.533 470.138C646.533 470.138 633.32 509.192 630.138 545.31C630.138 545.31 671.24 556.365 710.693 547.425L715.61 482.535L735.317 494.974L753.852 474.181C753.852 474.181 730.794 440.087 686.876 432.492Z" fill="white"/>
</mask>
<g mask="url(#mask1_9_4584)">
<path d="M681.089 433.156C681.089 433.156 645.179 447.278 615.368 445.273L617.185 435.425C617.185 435.425 668.751 428.431 681.546 430.704L681.065 433.156" fill="#F4C54E"/>
<path d="M638.316 469.249C638.316 469.249 647.963 467.201 651.981 464.005C655.999 460.808 640.926 488.918 640.926 501.425C640.926 513.932 644.906 541.594 651.063 545.68C657.22 549.765 698.466 547.569 698.466 547.569L696.15 553.933L622.305 548.814L638.306 469.249" fill="#F4C54E"/>
<path d="M739.145 491.364C739.145 491.364 725.268 486.557 721.302 483.837C717.337 481.116 713.217 477.665 713.217 477.665L712.53 491.955H738.842L739.145 491.364Z" fill="#F4C54E"/>
</g>
<path d="M664.617 595.669L658.69 564.704L651.841 616.107L664.617 595.669Z" fill="#343766"/>
<path d="M678.133 396.274C678.133 396.274 676.148 401.345 675.84 405.743C675.672 408.18 676.998 411.992 678.243 414.924C678.762 416.169 679.596 417.257 680.665 418.081C681.733 418.905 682.997 419.435 684.333 419.62L688.457 420.187L691.442 398.524L678.133 396.274Z" fill="#343766"/>
<path d="M712.37 400.989C712.37 400.989 712.908 406.406 712.019 410.728C711.538 413.131 709.212 416.438 707.246 418.899C706.411 419.959 705.314 420.783 704.063 421.289C702.812 421.795 701.45 421.965 700.113 421.783L695.989 421.216L698.974 399.547L712.37 400.989Z" fill="#343766"/>
<path d="M707.276 409.122C707.276 409.122 710.015 404.051 712.226 407.08C714.437 410.108 709.886 418.438 706.237 416.693C702.589 414.948 707.276 409.122 707.276 409.122Z" fill="#C17276"/>
<path d="M680.503 405.445C680.503 405.445 679.234 399.821 676.287 402.138C673.341 404.455 675.475 413.703 679.464 412.992C683.454 412.28 680.503 405.445 680.503 405.445Z" fill="#C17276"/>
<path d="M700.555 419.096L684.131 416.837L681.088 433.155C681.088 433.155 682.905 439.092 689.154 439.986C695.402 440.88 699.214 435.66 699.214 435.66L700.555 419.096Z" fill="#C17276"/>
<path d="M708.203 389.804L681.598 395.351L681.214 396.231C677.171 406.007 678.291 419.783 686.905 426.993C688.099 427.988 689.549 428.628 691.088 428.839C692.628 429.051 694.196 428.826 695.615 428.19C705.862 423.552 710.66 410.603 709.41 400.095C709.376 399.807 708.242 390.117 708.203 389.804Z" fill="#DA8C8D"/>
<mask id="mask2_9_4584" style="mask-type:luminance" maskUnits="userSpaceOnUse" x="678" y="389" width="32" height="40">
<path d="M708.204 389.804L681.599 395.351L681.214 396.231C677.172 406.007 678.292 419.783 686.905 426.993C688.1 427.988 689.549 428.628 691.089 428.839C692.629 429.051 694.197 428.826 695.615 428.19C705.863 423.552 710.66 410.603 709.41 400.095C709.377 399.807 708.242 390.117 708.204 389.804Z" fill="white"/>
</mask>
<g mask="url(#mask2_9_4584)">
<path d="M709.823 396.173C709.823 396.173 709.025 400.658 698.676 401.585C688.328 402.513 682.161 400.095 682.161 400.095L703.988 388.078L711.904 389.396L709.823 396.173Z" fill="#C17276"/>
</g>
<path d="M678.22 414.924C678.22 414.924 687.583 413.083 692.89 414.496C698.196 415.909 707.247 418.918 707.247 418.918C707.247 418.918 702.974 429.834 691.087 428.873C679.2 427.911 678.22 414.924 678.22 414.924Z" fill="#343766"/>
<path d="M709.694 383.762C709.694 383.762 721.98 382.32 712.534 405.032L709.732 404.647L706.939 390.266L709.694 383.762Z" fill="#343766"/>
<path d="M687.904 418.245C690.33 417.96 692.788 418.291 695.052 419.207C697.224 420.077 695.801 420.408 694.162 420.529C692.43 420.652 690.692 420.42 689.053 419.846C687.457 419.312 686.005 418.587 687.904 418.245Z" fill="#F2F3F7"/>
<path d="M706.939 390.265C706.939 390.265 698.839 391.227 698.402 395.524C697.964 399.821 694.557 405.31 679.387 402.734C679.387 402.734 672.465 392.4 676.426 381.835C680.386 371.27 703.66 372.548 709.693 383.757L707.203 391.607" fill="#343766"/>
<path d="M617.184 440.635L605.817 442.524L609.056 435.17L594.401 425.869C594.401 425.869 579.341 450.628 583.446 457.281C587.551 463.933 613.728 464.01 613.728 464.01L617.184 440.635Z" fill="#DA8C8D"/>
<mask id="mask3_9_4584" style="mask-type:luminance" maskUnits="userSpaceOnUse" x="582" y="425" width="36" height="40">
<path d="M617.184 440.635L605.817 442.524L609.056 435.17L594.401 425.869C594.401 425.869 579.341 450.628 583.446 457.281C587.551 463.933 613.728 464.01 613.728 464.01L617.184 440.635Z" fill="white"/>
</mask>
<g mask="url(#mask3_9_4584)">
<path d="M615.613 440.899C615.613 440.899 602.991 460.371 604.5 464.894L618.175 465.755L621.943 439.145L615.613 440.899Z" fill="#C17276"/>
</g>
<path d="M750.747 477.665C750.747 477.665 769.166 494.849 769.974 500.324C772.06 514.431 757.097 548.813 757.097 548.813V508.394L737.313 492.739L750.747 477.665Z" fill="#DA8C8D"/>
<path d="M745.599 557.255C745.599 557.255 739.432 562.403 735.063 562.239C730.693 562.076 723.906 557.255 723.906 557.255H745.599Z" fill="#DA8C8D"/>
<path d="M631.642 545.68C631.642 545.68 665.871 554.418 701.378 548.814C701.378 548.814 646.072 571.15 628.432 558.091L631.642 545.68Z" fill="#343766"/>
<path d="M705.339 494.378L651.072 484.904L659.06 459.837L708.828 468.528L705.339 494.378Z" fill="white"/>
<path d="M757.097 491.956H696.158V557.254H757.097V491.956Z" fill="#F1CA89"/>
<mask id="mask4_9_4584" style="mask-type:luminance" maskUnits="userSpaceOnUse" x="696" y="491" width="62" height="67">
<path d="M757.097 491.956H696.158V557.254H757.097V491.956Z" fill="white"/>
</mask>
<g mask="url(#mask4_9_4584)">
<path d="M705.045 491.965C705.045 491.965 709.371 540.075 740.811 548.823L759.99 553.481V562.253H693.841V491.364L705.045 491.955" fill="#F1B873"/>
</g>
<path d="M731.717 491.956H722.729V518.628H731.717V491.956Z" fill="#F2F3F7"/>
<path d="M617.476 719.435L606.777 718.075L606.561 724.555C606.561 724.555 592.588 726.218 590.963 732.332H615.991L617.476 719.435Z" fill="#1F1949"/>
<path d="M711.173 716.225L698.56 717.518L701.19 724.853C701.19 724.853 689.231 726.218 687.611 732.332H712.634L711.173 716.225Z" fill="#1F1949"/>
<path d="M290.884 732.337C307.863 732.337 321.627 718.573 321.627 701.594C321.627 684.614 307.863 670.85 290.884 670.85C273.905 670.85 260.14 684.614 260.14 701.594C260.14 718.573 273.905 732.337 290.884 732.337Z" fill="#343766"/>
<path d="M407.656 695.729H508.226V700.68C508.226 701.641 507.844 702.563 507.165 703.242C506.485 703.922 505.563 704.304 504.602 704.304H411.285C410.324 704.304 409.402 703.922 408.723 703.242C408.043 702.563 407.661 701.641 407.661 700.68V695.729H407.656Z" fill="#343766"/>
<path d="M457.944 732.337C474.923 732.337 488.687 718.573 488.687 701.594C488.687 684.614 474.923 670.85 457.944 670.85C440.965 670.85 427.201 684.614 427.201 701.594C427.201 718.573 440.965 732.337 457.944 732.337Z" fill="#343766"/>
<path d="M316.469 565.988H417.726V586.656H306.745V575.712C306.745 573.133 307.77 570.659 309.593 568.836C311.417 567.012 313.89 565.988 316.469 565.988Z" fill="#B2BFDF"/>
<path d="M581.085 695.936H404.926V576.731C404.926 573.884 406.056 571.154 408.067 569.139C410.079 567.125 412.808 565.992 415.654 565.988H570.328C571.739 565.987 573.136 566.265 574.44 566.804C575.744 567.344 576.928 568.135 577.926 569.133C578.924 570.131 579.715 571.315 580.255 572.619C580.794 573.922 581.072 575.32 581.071 576.731V695.936H581.085Z" fill="#8296C9"/>
<mask id="mask5_9_4584" style="mask-type:luminance" maskUnits="userSpaceOnUse" x="404" y="565" width="178" height="131">
<path d="M581.085 695.936H404.926V576.731C404.926 573.884 406.056 571.154 408.067 569.139C410.079 567.125 412.808 565.992 415.654 565.988H570.328C571.739 565.987 573.136 566.265 574.44 566.804C575.744 567.344 576.928 568.135 577.926 569.133C578.924 570.131 579.715 571.315 580.255 572.619C580.794 573.922 581.072 575.32 581.071 576.731V695.936H581.085Z" fill="white"/>
</mask>
<g mask="url(#mask5_9_4584)">
<path opacity="0.18" d="M570.343 565.988L525.853 706.482H598.904V565.382H570.343" fill="#343766"/>
</g>
<path d="M528.939 677.022C521.681 677.118 514.753 680.068 509.655 685.234C504.557 690.4 501.698 697.366 501.698 704.625C501.698 711.883 504.557 718.849 509.655 724.015C514.753 729.181 521.681 732.131 528.939 732.227H535.259V677.022H528.939Z" fill="#343766"/>
<path d="M534.499 732.226C549.742 732.226 562.099 719.869 562.099 704.627C562.099 689.384 549.742 677.027 534.499 677.027C519.256 677.027 506.9 689.384 506.9 704.627C506.9 719.869 519.256 732.226 534.499 732.226Z" fill="#343766"/>
<path d="M534.5 716.398C541.002 716.398 546.272 711.128 546.272 704.627C546.272 698.125 541.002 692.855 534.5 692.855C527.999 692.855 522.729 698.125 522.729 704.627C522.729 711.128 527.999 716.398 534.5 716.398Z" fill="#F2F3F7"/>
<path d="M534.5 697.834C535.522 697.834 536.351 697.006 536.351 695.984C536.351 694.962 535.522 694.133 534.5 694.133C533.478 694.133 532.649 694.962 532.649 695.984C532.649 697.006 533.478 697.834 534.5 697.834Z" fill="#343766"/>
<path d="M534.5 715.124C535.522 715.124 536.351 714.296 536.351 713.274C536.351 712.252 535.522 711.423 534.5 711.423C533.478 711.423 532.649 712.252 532.649 713.274C532.649 714.296 533.478 715.124 534.5 715.124Z" fill="#343766"/>
<path d="M540.613 700.368C541.636 700.368 542.464 699.539 542.464 698.517C542.464 697.495 541.636 696.667 540.613 696.667C539.591 696.667 538.763 697.495 538.763 698.517C538.763 699.539 539.591 700.368 540.613 700.368Z" fill="#343766"/>
<path d="M528.385 712.591C529.408 712.591 530.236 711.763 530.236 710.741C530.236 709.719 529.408 708.89 528.385 708.89C527.363 708.89 526.535 709.719 526.535 710.741C526.535 711.763 527.363 712.591 528.385 712.591Z" fill="#343766"/>
<path d="M543.147 706.477C544.169 706.477 544.997 705.649 544.997 704.627C544.997 703.605 544.169 702.776 543.147 702.776C542.125 702.776 541.296 703.605 541.296 704.627C541.296 705.649 542.125 706.477 543.147 706.477Z" fill="#343766"/>
<path d="M525.853 706.477C526.875 706.477 527.703 705.649 527.703 704.627C527.703 703.605 526.875 702.776 525.853 702.776C524.83 702.776 524.002 703.605 524.002 704.627C524.002 705.649 524.83 706.477 525.853 706.477Z" fill="#343766"/>
<path d="M540.613 712.591C541.636 712.591 542.464 711.763 542.464 710.741C542.464 709.719 541.636 708.89 540.613 708.89C539.591 708.89 538.763 709.719 538.763 710.741C538.763 711.763 539.591 712.591 540.613 712.591Z" fill="#343766"/>
<path d="M528.385 700.368C529.408 700.368 530.236 699.539 530.236 698.517C530.236 697.495 529.408 696.667 528.385 696.667C527.363 696.667 526.535 697.495 526.535 698.517C526.535 699.539 527.363 700.368 528.385 700.368Z" fill="#343766"/>
<path d="M530.237 677.782C525.793 678.953 521.707 681.2 518.339 684.326C514.97 687.451 512.423 691.358 510.923 695.701C508.962 701.492 508.962 707.767 510.923 713.558C512.423 717.901 514.969 721.808 518.338 724.932C521.706 728.057 525.793 730.303 530.237 731.472C527.21 730.832 524.316 729.676 521.681 728.055C519.045 726.407 516.701 724.332 514.745 721.917C512.296 718.876 510.521 715.349 509.538 711.571C508.554 707.793 508.385 703.849 509.041 700C509.697 696.151 511.162 692.486 513.342 689.246C515.521 686.007 518.363 683.267 521.681 681.209C524.315 679.584 527.209 678.425 530.237 677.782Z" fill="#8296C9"/>
<path d="M574.89 685.626V694.595C574.89 694.951 574.749 695.292 574.497 695.543C574.246 695.795 573.905 695.936 573.549 695.936H556.875V704.867H583.379C583.86 704.867 584.323 704.675 584.663 704.335C585.004 703.994 585.195 703.532 585.195 703.05V685.717C585.195 685.548 585.162 685.38 585.097 685.223C585.032 685.066 584.937 684.924 584.816 684.805C584.696 684.685 584.554 684.59 584.397 684.526C584.24 684.461 584.072 684.428 583.903 684.429H576.087C575.93 684.428 575.774 684.459 575.628 684.519C575.483 684.579 575.35 684.667 575.239 684.778C575.128 684.889 575.04 685.022 574.98 685.167C574.92 685.313 574.889 685.468 574.89 685.626Z" fill="#343766"/>
<path d="M561.912 706.482C561.577 706.482 561.245 706.416 560.936 706.287C560.626 706.159 560.345 705.971 560.109 705.734C559.872 705.497 559.685 705.215 559.557 704.906C559.429 704.596 559.364 704.264 559.364 703.929C559.364 696.854 556.554 690.069 551.551 685.066C546.548 680.063 539.762 677.252 532.687 677.252C525.612 677.252 518.827 680.063 513.824 685.066C508.821 690.069 506.01 696.854 506.01 703.929C506.01 704.606 505.741 705.255 505.263 705.734C504.784 706.213 504.135 706.482 503.458 706.482C502.781 706.482 502.132 706.213 501.653 705.734C501.175 705.255 500.906 704.606 500.906 703.929C500.906 695.504 504.253 687.424 510.21 681.467C516.168 675.509 524.248 672.162 532.673 672.162C541.098 672.162 549.178 675.509 555.136 681.467C561.093 687.424 564.44 695.504 564.44 703.929C564.44 704.602 564.175 705.248 563.701 705.726C563.228 706.204 562.585 706.475 561.912 706.482Z" fill="#F2F3F7"/>
<path d="M337.961 583.854V697.21H239.78V666.832C239.779 663.9 240.575 661.024 242.081 658.509C243.586 655.994 245.747 653.935 248.331 652.551L259.549 646.548C263.33 644.523 266.268 641.222 267.841 637.232L284.717 594.386C285.941 591.28 288.072 588.615 290.831 586.737C293.591 584.859 296.852 583.854 300.19 583.854H337.961Z" fill="#8296C9"/>
<path d="M404.926 583.854V697.21H306.745V666.832C306.745 663.9 307.541 661.023 309.047 658.508C310.554 655.993 312.716 653.934 315.301 652.551L326.515 646.548C330.297 644.524 333.238 641.223 334.811 637.232L351.687 594.386C352.911 591.281 355.04 588.616 357.799 586.737C360.558 584.859 363.818 583.854 367.155 583.854H404.926Z" fill="#8296C9"/>
<path d="M300.19 583.854C296.852 583.854 293.591 584.859 290.831 586.737C288.072 588.615 285.941 591.28 284.717 594.386L272.503 625.393C267.92 637.025 259.353 646.651 248.331 652.551C245.747 653.935 243.586 655.994 242.081 658.509C240.575 661.024 239.779 663.9 239.78 666.832V697.21H306.746V666.832C306.746 663.9 307.542 661.023 309.048 658.508C310.555 655.993 312.717 653.934 315.302 652.551L326.516 646.548C330.298 644.524 333.239 641.223 334.812 637.232L337.961 629.234L351.688 594.386C352.912 591.281 355.041 588.616 357.8 586.737C360.559 584.859 363.819 583.854 367.156 583.854H300.19Z" fill="#B2BFDF"/>
<path d="M318.026 685.674H239.49C238.973 685.674 238.476 685.468 238.11 685.102C237.744 684.736 237.539 684.24 237.539 683.722V670.667C237.539 670.15 237.744 669.653 238.11 669.287C238.476 668.921 238.973 668.716 239.49 668.716H320.632C320.902 668.716 321.169 668.775 321.414 668.888C321.66 669.001 321.878 669.165 322.055 669.37C322.231 669.574 322.362 669.815 322.437 670.074C322.512 670.334 322.531 670.607 322.492 670.874L320.608 683.448C320.516 684.067 320.205 684.633 319.731 685.042C319.257 685.45 318.652 685.675 318.026 685.674Z" fill="#343766"/>
<path d="M254.353 670.379H290.883V687.524C290.883 688.143 290.638 688.736 290.201 689.173C289.763 689.61 289.171 689.856 288.552 689.856H256.684C256.066 689.856 255.473 689.61 255.036 689.173C254.598 688.736 254.353 688.143 254.353 687.524V670.379Z" fill="#343766"/>
<path d="M287.269 675.1H257.997C257.91 675.1 257.824 675.084 257.743 675.051C257.663 675.018 257.59 674.97 257.528 674.908C257.466 674.847 257.417 674.774 257.384 674.694C257.351 674.614 257.333 674.528 257.333 674.441C257.333 674.265 257.403 674.096 257.528 673.972C257.652 673.848 257.821 673.778 257.997 673.778H287.269C287.356 673.778 287.442 673.795 287.522 673.828C287.603 673.862 287.675 673.911 287.737 673.972C287.798 674.034 287.846 674.107 287.879 674.188C287.912 674.268 287.928 674.354 287.928 674.441C287.928 674.616 287.858 674.783 287.735 674.907C287.611 675.03 287.444 675.1 287.269 675.1Z" fill="#8296C9"/>
<path d="M287.269 677.214H257.997C257.91 677.215 257.824 677.198 257.743 677.165C257.663 677.133 257.59 677.084 257.528 677.023C257.466 676.962 257.417 676.889 257.384 676.809C257.351 676.729 257.333 676.643 257.333 676.556C257.333 676.38 257.403 676.211 257.528 676.087C257.652 675.962 257.821 675.892 257.997 675.892H287.269C287.356 675.892 287.442 675.91 287.522 675.943C287.603 675.976 287.675 676.025 287.737 676.087C287.798 676.149 287.846 676.222 287.879 676.302C287.912 676.383 287.928 676.469 287.928 676.556C287.928 676.73 287.858 676.898 287.735 677.021C287.611 677.145 287.444 677.214 287.269 677.214Z" fill="#8296C9"/>
<path d="M287.269 679.343H257.997C257.91 679.344 257.824 679.328 257.743 679.295C257.663 679.262 257.59 679.213 257.528 679.152C257.466 679.091 257.417 679.018 257.384 678.938C257.351 678.858 257.333 678.772 257.333 678.685C257.333 678.509 257.403 678.34 257.528 678.216C257.652 678.092 257.821 678.022 257.997 678.022H287.269C287.356 678.022 287.442 678.039 287.522 678.072C287.603 678.106 287.675 678.155 287.737 678.216C287.798 678.278 287.846 678.351 287.879 678.431C287.912 678.512 287.928 678.598 287.928 678.685C287.928 678.86 287.858 679.027 287.735 679.151C287.611 679.274 287.444 679.343 287.269 679.343Z" fill="#8296C9"/>
<path d="M287.269 681.472H257.997C257.91 681.473 257.824 681.457 257.743 681.424C257.663 681.391 257.59 681.343 257.528 681.281C257.466 681.22 257.417 681.147 257.384 681.067C257.351 680.987 257.333 680.901 257.333 680.814C257.333 680.727 257.351 680.641 257.384 680.56C257.417 680.48 257.466 680.407 257.528 680.345C257.589 680.283 257.662 680.234 257.743 680.201C257.823 680.168 257.91 680.151 257.997 680.151H287.269C287.356 680.151 287.442 680.168 287.522 680.201C287.603 680.235 287.675 680.284 287.737 680.345C287.798 680.407 287.846 680.48 287.879 680.56C287.912 680.641 287.928 680.727 287.928 680.814C287.928 680.989 287.858 681.156 287.735 681.28C287.611 681.403 287.444 681.472 287.269 681.472Z" fill="#8296C9"/>
<path d="M238.938 697.209H326.251V702.602C326.251 704.602 325.456 706.521 324.042 707.935C322.628 709.349 320.71 710.144 318.709 710.144H238.919C238.735 710.144 238.553 710.108 238.383 710.037C238.214 709.967 238.06 709.864 237.93 709.734C237.8 709.604 237.697 709.45 237.626 709.281C237.556 709.111 237.52 708.929 237.52 708.745V698.608C237.52 698.237 237.667 697.881 237.93 697.619C238.192 697.357 238.548 697.209 238.919 697.209H238.938Z" fill="#343766"/>
<path d="M330.043 636.016L273.464 635.819C273.147 635.821 272.835 635.743 272.556 635.595C272.276 635.446 272.037 635.231 271.861 634.968C271.684 634.705 271.575 634.402 271.544 634.087C271.513 633.772 271.56 633.454 271.681 633.161L285.812 598.553C286.082 597.894 286.541 597.33 287.131 596.933C287.722 596.536 288.417 596.324 289.129 596.323H343.118C343.7 596.326 344.274 596.47 344.788 596.744C345.303 597.018 345.743 597.414 346.07 597.896C346.397 598.379 346.601 598.934 346.666 599.513C346.73 600.092 346.652 600.679 346.439 601.221L333.384 633.762C333.116 634.429 332.655 635 332.059 635.401C331.464 635.803 330.762 636.017 330.043 636.016Z" fill="#E1E5EF"/>
<mask id="mask6_9_4584" style="mask-type:luminance" maskUnits="userSpaceOnUse" x="271" y="596" width="76" height="41">
<path d="M330.043 636.016L273.464 635.819C273.147 635.821 272.835 635.743 272.556 635.595C272.276 635.446 272.037 635.231 271.861 634.968C271.684 634.705 271.575 634.402 271.544 634.087C271.513 633.772 271.56 633.454 271.681 633.161L285.812 598.553C286.082 597.894 286.541 597.33 287.131 596.933C287.722 596.536 288.417 596.324 289.129 596.323H343.118C343.7 596.326 344.274 596.47 344.788 596.744C345.303 597.018 345.743 597.414 346.07 597.896C346.397 598.379 346.601 598.934 346.666 599.513C346.73 600.092 346.652 600.679 346.439 601.221L333.384 633.762C333.116 634.429 332.655 635 332.059 635.401C331.464 635.803 330.762 636.017 330.043 636.016Z" fill="white"/>
</mask>
<g mask="url(#mask6_9_4584)">
<path opacity="0.32" d="M343.354 594.405L319.34 637.646H304.848L328.679 595.001L343.354 594.405Z" fill="#B2BFDF"/>
<path opacity="0.32" d="M324.098 594.535L300.089 637.78H276.06L300.747 595.487L324.098 594.535Z" fill="#B2BFDF"/>
</g>
<path d="M396.726 687.457H386.843C386.273 687.455 385.717 687.275 385.254 686.942C384.791 686.608 384.444 686.138 384.262 685.597C379.806 672.503 371.678 663.871 360.099 659.934C357.64 659.104 355.372 657.79 353.429 656.069C351.486 654.349 349.906 652.257 348.784 649.917C347.635 647.554 346.97 644.986 346.828 642.362C346.686 639.739 347.07 637.114 347.957 634.641L360.186 600.283C361.175 597.516 362.995 595.123 365.396 593.429C367.797 591.735 370.663 590.823 373.601 590.819H396.909C397.58 590.82 398.224 591.087 398.698 591.562C399.173 592.037 399.44 592.681 399.442 593.352V684.736C399.44 685.457 399.154 686.147 398.645 686.657C398.136 687.167 397.446 687.454 396.726 687.457ZM360.195 659.578C371.885 663.548 380.09 672.258 384.584 685.462C384.741 685.933 385.042 686.342 385.444 686.632C385.845 686.923 386.328 687.08 386.824 687.082H396.707C397.017 687.082 397.325 687.021 397.612 686.902C397.899 686.783 398.159 686.609 398.379 686.389C398.598 686.17 398.773 685.909 398.891 685.622C399.01 685.335 399.072 685.028 399.072 684.717V593.352C399.07 592.776 398.841 592.224 398.434 591.817C398.027 591.41 397.475 591.181 396.899 591.179H373.601C370.737 591.183 367.944 592.071 365.604 593.722C363.264 595.373 361.49 597.706 360.527 600.403L348.294 634.761C347.422 637.189 347.045 639.766 347.184 642.342C347.324 644.917 347.977 647.439 349.106 649.758C350.208 652.056 351.758 654.11 353.666 655.8C355.574 657.49 357.8 658.781 360.214 659.597L360.195 659.578Z" fill="#343766"/>
<path d="M392.01 653.513C391.601 653.513 391.208 653.35 390.918 653.061C390.628 652.772 390.464 652.379 390.463 651.97V643.616C390.463 643.205 390.626 642.812 390.916 642.521C391.206 642.231 391.6 642.068 392.01 642.068C392.42 642.069 392.812 642.233 393.102 642.523C393.391 642.813 393.553 643.206 393.553 643.616V651.97C393.553 652.379 393.391 652.771 393.101 653.061C392.812 653.35 392.42 653.513 392.01 653.513Z" fill="#343766"/>
<path d="M392.761 636.021H357.014C356.63 636.023 356.251 635.933 355.91 635.758C355.568 635.583 355.273 635.329 355.049 635.017C354.826 634.705 354.68 634.344 354.625 633.964C354.569 633.585 354.606 633.197 354.731 632.834L365.094 602.398C365.7 600.619 366.848 599.075 368.376 597.981C369.904 596.887 371.737 596.299 373.616 596.299H393.506C393.952 596.299 394.38 596.476 394.696 596.791C395.011 597.107 395.188 597.535 395.188 597.981V633.613C395.189 633.931 395.127 634.246 395.005 634.54C394.883 634.833 394.704 635.1 394.478 635.324C394.252 635.548 393.984 635.725 393.689 635.845C393.395 635.964 393.079 636.024 392.761 636.021Z" fill="#E1E5EF"/>
<mask id="mask7_9_4584" style="mask-type:luminance" maskUnits="userSpaceOnUse" x="354" y="596" width="42" height="41">
<path d="M392.761 636.021H357.014C356.63 636.023 356.251 635.933 355.91 635.758C355.568 635.583 355.273 635.329 355.049 635.017C354.826 634.705 354.68 634.344 354.625 633.964C354.569 633.585 354.606 633.197 354.731 632.834L365.094 602.398C365.7 600.619 366.848 599.075 368.376 597.981C369.904 596.887 371.737 596.299 373.616 596.299H393.506C393.952 596.299 394.38 596.476 394.696 596.791C395.011 597.107 395.188 597.535 395.188 597.981V633.613C395.189 633.931 395.127 634.246 395.005 634.54C394.883 634.833 394.704 635.1 394.478 635.324C394.252 635.548 393.984 635.725 393.689 635.845C393.395 635.964 393.079 636.024 392.761 636.021Z" fill="white"/>
</mask>
<g mask="url(#mask7_9_4584)">
<path d="M392.011 594.059L379.023 639.141H348.578L365.492 594.886L392.011 594.059Z" fill="#B2BFDF"/>
</g>
<path d="M357.865 631.623H342.632C341.89 631.623 341.179 631.918 340.654 632.443C340.13 632.967 339.835 633.679 339.835 634.421V638.266H337.234C337.038 638.266 336.85 638.344 336.711 638.483C336.572 638.622 336.494 638.81 336.494 639.006V640.867C336.494 641.063 336.572 641.251 336.711 641.39C336.85 641.529 337.038 641.607 337.234 641.607H339.941C340.103 642.195 340.455 642.715 340.941 643.084C341.427 643.454 342.021 643.654 342.632 643.654H357.865C358.606 643.653 359.317 643.358 359.841 642.834C360.366 642.309 360.661 641.598 360.662 640.857V634.406C360.657 633.667 360.36 632.96 359.836 632.439C359.312 631.918 358.604 631.625 357.865 631.623Z" fill="#343766"/>
<path d="M357.258 642.856C357.528 642.498 357.714 642.084 357.801 641.645C357.884 641.462 357.944 641.27 357.979 641.073C358.007 640.864 358.016 640.653 358.008 640.443V634.545C358.015 634.444 358.015 634.343 358.008 634.242C357.985 634.044 357.935 633.85 357.859 633.666C357.799 633.223 357.635 632.801 357.378 632.435C357.854 632.631 358.259 632.966 358.542 633.396C358.642 633.641 358.71 633.898 358.744 634.161C358.751 634.29 358.751 634.42 358.744 634.55V640.448C358.751 640.697 358.738 640.946 358.705 641.193C358.655 641.45 358.571 641.699 358.455 641.933C358.162 642.358 357.744 642.68 357.258 642.856Z" fill="#8296C9"/>
<path d="M304.846 660.501H244.83C244.687 660.501 244.551 660.445 244.45 660.344C244.349 660.243 244.292 660.106 244.292 659.963C244.292 659.82 244.349 659.683 244.45 659.582C244.551 659.481 244.687 659.425 244.83 659.425H304.846C304.989 659.425 305.126 659.481 305.227 659.582C305.328 659.683 305.385 659.82 305.385 659.963C305.385 660.106 305.328 660.243 305.227 660.344C305.126 660.445 304.989 660.501 304.846 660.501Z" fill="#E1E5EF"/>
<path d="M302.728 701.537H242.711C242.637 701.544 242.562 701.535 242.49 701.511C242.419 701.488 242.354 701.449 242.298 701.399C242.243 701.348 242.199 701.287 242.168 701.218C242.138 701.15 242.122 701.076 242.122 701.001C242.122 700.926 242.138 700.851 242.168 700.783C242.199 700.714 242.243 700.653 242.298 700.602C242.354 700.552 242.419 700.514 242.49 700.49C242.562 700.466 242.637 700.458 242.711 700.465H302.728C302.802 700.458 302.877 700.466 302.949 700.49C303.02 700.514 303.085 700.552 303.141 700.602C303.196 700.653 303.24 700.714 303.271 700.783C303.301 700.851 303.317 700.926 303.317 701.001C303.317 701.076 303.301 701.15 303.271 701.218C303.24 701.287 303.196 701.348 303.141 701.399C303.085 701.449 303.02 701.488 302.949 701.511C302.877 701.535 302.802 701.544 302.728 701.537Z" fill="#8296C9"/>
<path d="M384.892 697.046H404.926V700.891C404.926 701.85 404.545 702.769 403.868 703.447C403.19 704.125 402.27 704.506 401.312 704.506H388.507C387.548 704.506 386.629 704.125 385.951 703.447C385.273 702.769 384.892 701.85 384.892 700.891V697.046Z" fill="#343766"/>
<path d="M351.808 647.706C352.471 647.706 353.009 647.168 353.009 646.504C353.009 645.841 352.471 645.303 351.808 645.303C351.144 645.303 350.606 645.841 350.606 646.504C350.606 647.168 351.144 647.706 351.808 647.706Z" fill="#343766"/>
<path d="M354.332 650.547C354.332 650.785 354.261 651.017 354.129 651.214C353.997 651.412 353.81 651.566 353.59 651.657C353.371 651.748 353.129 651.772 352.896 651.725C352.663 651.679 352.449 651.565 352.281 651.397C352.112 651.228 351.998 651.014 351.952 650.781C351.905 650.548 351.929 650.307 352.02 650.087C352.111 649.867 352.265 649.68 352.463 649.548C352.66 649.416 352.893 649.345 353.13 649.345C353.449 649.346 353.753 649.473 353.979 649.699C354.204 649.924 354.331 650.229 354.332 650.547Z" fill="#343766"/>
<path d="M253.248 671.59H241.226C240.427 671.59 239.78 672.238 239.78 673.037V681.391C239.78 682.19 240.427 682.838 241.226 682.838H253.248C254.047 682.838 254.695 682.19 254.695 681.391V673.037C254.695 672.238 254.047 671.59 253.248 671.59Z" fill="#B2BFDF"/>
<path d="M251.81 673.129H242.202C241.78 673.129 241.437 673.471 241.437 673.893V680.536C241.437 680.958 241.78 681.3 242.202 681.3H251.81C252.232 681.3 252.574 680.958 252.574 680.536V673.893C252.574 673.471 252.232 673.129 251.81 673.129Z" fill="#F2F3F7"/>
<path d="M303.818 671.59H291.797C290.998 671.59 290.35 672.238 290.35 673.037V681.391C290.35 682.19 290.998 682.838 291.797 682.838H303.818C304.617 682.838 305.265 682.19 305.265 681.391V673.037C305.265 672.238 304.617 671.59 303.818 671.59Z" fill="#B2BFDF"/>
<path d="M302.612 673.129H293.003C292.581 673.129 292.239 673.471 292.239 673.893V680.536C292.239 680.958 292.581 681.3 293.003 681.3H302.612C303.034 681.3 303.376 680.958 303.376 680.536V673.893C303.376 673.471 303.034 673.129 302.612 673.129Z" fill="#F2F3F7"/>
<path d="M317.301 671.604H312.864C312.203 671.604 311.667 672.14 311.667 672.801V681.622C311.667 682.283 312.203 682.818 312.864 682.818H317.301C317.962 682.818 318.498 682.283 318.498 681.622V672.801C318.498 672.14 317.962 671.604 317.301 671.604Z" fill="#B2BFDF"/>
<path d="M316.728 673.129H313.431C313.237 673.129 313.08 673.286 313.08 673.479V680.949C313.08 681.143 313.237 681.3 313.431 681.3H316.728C316.922 681.3 317.079 681.143 317.079 680.949V673.479C317.079 673.286 316.922 673.129 316.728 673.129Z" fill="#F2F3F7"/>
<path d="M351.808 587.19H294.32C294.246 587.197 294.17 587.189 294.099 587.165C294.028 587.141 293.963 587.103 293.907 587.053C293.852 587.002 293.807 586.941 293.777 586.872C293.747 586.803 293.731 586.729 293.731 586.654C293.731 586.579 293.747 586.505 293.777 586.437C293.807 586.368 293.852 586.307 293.907 586.256C293.963 586.206 294.028 586.167 294.099 586.144C294.17 586.12 294.246 586.111 294.32 586.118H351.808C351.883 586.111 351.958 586.12 352.029 586.144C352.1 586.167 352.166 586.206 352.221 586.256C352.277 586.307 352.321 586.368 352.351 586.437C352.382 586.505 352.397 586.579 352.397 586.654C352.397 586.729 352.382 586.803 352.351 586.872C352.321 586.941 352.277 587.002 352.221 587.053C352.166 587.103 352.1 587.141 352.029 587.165C351.958 587.189 351.883 587.197 351.808 587.19Z" fill="#E1E5EF"/>
<path d="M401.576 702.805H388.257C388.096 702.804 387.943 702.739 387.83 702.626C387.716 702.513 387.652 702.359 387.651 702.199C387.651 702.039 387.715 701.884 387.828 701.771C387.942 701.657 388.096 701.594 388.257 701.594H401.585C401.746 701.594 401.9 701.657 402.014 701.771C402.127 701.884 402.191 702.039 402.191 702.199C402.19 702.279 402.174 702.359 402.143 702.432C402.111 702.506 402.066 702.573 402.009 702.629C401.952 702.686 401.884 702.73 401.81 702.76C401.735 702.79 401.656 702.805 401.576 702.805Z" fill="#8296C9"/>
<path d="M350.164 677.022C342.907 677.118 335.979 680.068 330.881 685.234C325.782 690.4 322.924 697.366 322.924 704.625C322.924 711.883 325.782 718.849 330.881 724.015C335.979 729.181 342.907 732.131 350.164 732.227H356.49V677.022H350.164Z" fill="#343766"/>
<path d="M355.725 732.226C370.968 732.226 383.324 719.869 383.324 704.627C383.324 689.384 370.968 677.027 355.725 677.027C340.482 677.027 328.125 689.384 328.125 704.627C328.125 719.869 340.482 732.226 355.725 732.226Z" fill="#343766"/>
<path d="M355.725 716.398C362.226 716.398 367.497 711.128 367.497 704.627C367.497 698.125 362.226 692.855 355.725 692.855C349.224 692.855 343.954 698.125 343.954 704.627C343.954 711.128 349.224 716.398 355.725 716.398Z" fill="#F2F3F7"/>
<path d="M355.725 697.834C356.748 697.834 357.576 697.006 357.576 695.984C357.576 694.962 356.748 694.133 355.725 694.133C354.703 694.133 353.875 694.962 353.875 695.984C353.875 697.006 354.703 697.834 355.725 697.834Z" fill="#343766"/>
<path d="M355.725 715.124C356.748 715.124 357.576 714.296 357.576 713.274C357.576 712.252 356.748 711.423 355.725 711.423C354.703 711.423 353.875 712.252 353.875 713.274C353.875 714.296 354.703 715.124 355.725 715.124Z" fill="#343766"/>
<path d="M361.839 700.368C362.861 700.368 363.69 699.539 363.69 698.517C363.69 697.495 362.861 696.667 361.839 696.667C360.817 696.667 359.989 697.495 359.989 698.517C359.989 699.539 360.817 700.368 361.839 700.368Z" fill="#343766"/>
<path d="M349.611 712.591C350.633 712.591 351.461 711.763 351.461 710.741C351.461 709.719 350.633 708.89 349.611 708.89C348.589 708.89 347.76 709.719 347.76 710.741C347.76 711.763 348.589 712.591 349.611 712.591Z" fill="#343766"/>
<path d="M364.373 706.477C365.395 706.477 366.224 705.649 366.224 704.627C366.224 703.605 365.395 702.776 364.373 702.776C363.351 702.776 362.522 703.605 362.522 704.627C362.522 705.649 363.351 706.477 364.373 706.477Z" fill="#343766"/>
<path d="M349.656 703.165C350.596 702.766 351.035 701.681 350.637 700.74C350.238 699.8 349.153 699.361 348.212 699.759C347.272 700.158 346.833 701.243 347.232 702.184C347.63 703.124 348.716 703.563 349.656 703.165Z" fill="#343766"/>
<path d="M361.839 712.591C362.861 712.591 363.69 711.763 363.69 710.741C363.69 709.719 362.861 708.89 361.839 708.89C360.817 708.89 359.989 709.719 359.989 710.741C359.989 711.763 360.817 712.591 361.839 712.591Z" fill="#343766"/>
<path d="M349.611 700.368C350.633 700.368 351.461 699.539 351.461 698.517C351.461 697.495 350.633 696.667 349.611 696.667C348.589 696.667 347.76 697.495 347.76 698.517C347.76 699.539 348.589 700.368 349.611 700.368Z" fill="#343766"/>
<path d="M351.462 677.782C347.019 678.953 342.932 681.2 339.564 684.326C336.195 687.451 333.649 691.358 332.149 695.701C330.188 701.492 330.188 707.767 332.149 713.558C333.651 717.9 336.198 721.805 339.566 724.929C342.934 728.053 347.02 730.301 351.462 731.472C348.435 730.832 345.541 729.676 342.906 728.055C340.271 726.405 337.928 724.331 335.97 721.917C333.52 718.876 331.744 715.35 330.76 711.571C329.776 707.792 329.607 703.847 330.263 699.998C330.92 696.149 332.387 692.483 334.567 689.244C336.748 686.004 339.592 683.266 342.911 681.209C345.543 679.584 348.436 678.424 351.462 677.782Z" fill="#8296C9"/>
<path d="M404.927 696.907C404.672 696.907 404.428 696.806 404.247 696.626C404.067 696.445 403.966 696.201 403.966 695.946V583.854C403.966 583.596 404.068 583.349 404.251 583.166C404.433 582.984 404.681 582.881 404.939 582.881C405.197 582.881 405.445 582.984 405.627 583.166C405.81 583.349 405.913 583.596 405.913 583.854V695.936C405.914 696.065 405.889 696.193 405.84 696.313C405.791 696.432 405.718 696.54 405.626 696.631C405.534 696.721 405.425 696.793 405.305 696.84C405.185 696.888 405.056 696.91 404.927 696.907Z" fill="#343766"/>
<path d="M436.804 619.25H444.196C445.416 619.22 446.627 619.458 447.744 619.947C448.701 620.384 449.54 621.043 450.19 621.87C450.841 622.713 451.321 623.675 451.604 624.701C452.219 626.975 452.219 629.372 451.604 631.647C451.321 632.673 450.841 633.635 450.19 634.478C449.54 635.305 448.701 635.964 447.744 636.401C446.627 636.89 445.416 637.128 444.196 637.097H436.804V619.25ZM439.928 634.531H443C444.016 634.567 445.031 634.404 445.985 634.05C446.701 633.77 447.33 633.304 447.806 632.699C448.258 632.105 448.566 631.414 448.705 630.681C449.019 629.021 449.019 627.317 448.705 625.658C448.565 624.923 448.257 624.231 447.806 623.634C447.328 623.033 446.7 622.569 445.985 622.288C445.031 621.934 444.016 621.771 443 621.807H439.928V634.531Z" fill="white"/>
<path d="M454.853 619.25H467.692V621.947H457.977V626.614H466.966V629.162H457.977V634.382H467.865V637.078H454.853V619.25Z" fill="white"/>
<path d="M470.59 619.25H473.71V634.382H482.775V637.078H470.59V619.25Z" fill="white"/>
<path d="M484.924 619.25H488.043V637.078H484.924V619.25Z" fill="white"/>
<path d="M489.841 619.25H493.09L497.56 633.358H497.608L502.179 619.25H505.352L499.257 637.078H495.786L489.841 619.25Z" fill="white"/>
<path d="M507.125 619.25H519.959V621.947H510.245V626.614H519.238V629.162H510.245V634.382H520.137V637.078H507.125V619.25Z" fill="white"/>
<path d="M522.844 619.25H531.361C533.322 619.25 534.798 619.673 535.778 620.524C536.275 620.965 536.665 621.513 536.921 622.127C537.176 622.74 537.29 623.403 537.254 624.066C537.278 624.788 537.15 625.507 536.879 626.177C536.669 626.675 536.373 627.132 536.004 627.527C535.724 627.831 535.39 628.08 535.019 628.263C534.692 628.412 534.456 628.513 534.307 628.566V628.614C534.605 628.656 534.894 628.74 535.168 628.864C535.496 629.012 535.789 629.229 536.028 629.498C536.321 629.831 536.546 630.218 536.692 630.637C536.882 631.2 536.971 631.793 536.956 632.387C536.947 633.344 537.026 634.299 537.191 635.242C537.268 635.909 537.522 636.543 537.927 637.078H534.562C534.326 636.692 534.185 636.256 534.149 635.804C534.11 635.324 534.086 634.891 534.086 634.458C534.095 633.752 534.045 633.046 533.937 632.348C533.869 631.827 533.692 631.326 533.418 630.878C533.151 630.488 532.772 630.188 532.332 630.017C531.768 629.817 531.171 629.724 530.573 629.743H525.977V637.083H522.844V619.25ZM525.968 627.364H531.087C531.906 627.423 532.717 627.169 533.356 626.652C533.63 626.373 533.841 626.037 533.975 625.669C534.11 625.301 534.164 624.909 534.134 624.518C534.151 624.044 534.065 623.572 533.884 623.134C533.734 622.797 533.497 622.507 533.197 622.293C532.895 622.091 532.555 621.955 532.197 621.894C531.813 621.83 531.424 621.798 531.034 621.798H525.968V627.364Z" fill="white"/>
<path d="M544.161 630.089L537.47 619.25H541.109L545.829 627.239L550.472 619.25H553.971L547.3 630.089V637.078H544.18L544.161 630.089Z" fill="white"/>
<path d="M383.801 706.482C383.466 706.482 383.134 706.416 382.825 706.288C382.515 706.16 382.234 705.972 381.998 705.734C381.761 705.497 381.574 705.216 381.446 704.906C381.318 704.597 381.253 704.265 381.253 703.93C381.159 696.92 378.308 690.229 373.318 685.305C368.328 680.381 361.599 677.621 354.588 677.621C347.578 677.621 340.849 680.381 335.859 685.305C330.868 690.229 328.017 696.92 327.923 703.93C327.923 704.607 327.654 705.256 327.176 705.735C326.697 706.213 326.048 706.482 325.371 706.482C324.694 706.482 324.045 706.213 323.566 705.735C323.088 705.256 322.819 704.607 322.819 703.93C322.715 699.694 323.46 695.48 325.01 691.536C326.559 687.592 328.883 683.998 331.842 680.965C334.802 677.933 338.339 675.523 342.244 673.878C346.149 672.233 350.344 671.385 354.581 671.386C358.819 671.387 363.013 672.235 366.918 673.881C370.823 675.528 374.358 677.938 377.317 680.972C380.276 684.005 382.598 687.6 384.147 691.545C385.695 695.489 386.439 699.703 386.334 703.94C386.331 704.612 386.064 705.255 385.59 705.731C385.116 706.207 384.473 706.477 383.801 706.482Z" fill="#F2F3F7"/>
<path d="M1039.03 379.994H1251.89C1249.79 371.703 1241.85 365.81 1233.76 363.051C1225.66 360.292 1216.83 360.647 1208.38 362.036C1208.39 357.066 1206.83 352.221 1203.92 348.188C1199.12 341.209 1192.7 335.1 1184.8 332.028C1176.9 328.957 1167.43 329.298 1160.48 334.143C1155.44 337.657 1152.15 343.103 1149.1 348.438C1146.59 352.846 1144.07 357.571 1144.27 362.661C1134.02 356.292 1118.53 360.33 1111.7 370.285C1100.64 363.262 1087.64 358.691 1074.56 359.556C1061.49 360.421 1045.28 368.477 1039.03 379.994Z" fill="white"/>
<path d="M787.811 539.066C793.651 539.066 798.385 534.331 798.385 528.491C798.385 522.651 793.651 517.917 787.811 517.917C781.971 517.917 777.236 522.651 777.236 528.491C777.236 534.331 781.971 539.066 787.811 539.066Z" fill="#E1E5EF"/>
<path d="M787.811 594.15C793.651 594.15 798.385 589.415 798.385 583.575C798.385 577.735 793.651 573 787.811 573C781.971 573 777.236 577.735 777.236 583.575C777.236 589.415 781.971 594.15 787.811 594.15Z" fill="#E1E5EF"/>
<path d="M787.811 649.235C793.651 649.235 798.385 644.5 798.385 638.66C798.385 632.82 793.651 628.085 787.811 628.085C781.971 628.085 777.236 632.82 777.236 638.66C777.236 644.5 781.971 649.235 787.811 649.235Z" fill="#E1E5EF"/>
<path d="M787.811 701.896C793.651 701.896 798.385 697.162 798.385 691.322C798.385 685.482 793.651 680.747 787.811 680.747C781.971 680.747 777.236 685.482 777.236 691.322C777.236 697.162 781.971 701.896 787.811 701.896Z" fill="white"/>
<path d="M948.094 522.526H825.092C824.222 522.526 823.388 522.181 822.774 521.566C822.159 520.951 821.813 520.117 821.813 519.248C821.813 518.378 822.159 517.545 822.774 516.93C823.388 516.315 824.222 515.97 825.092 515.97H948.094C948.964 515.97 949.797 516.315 950.412 516.93C951.027 517.545 951.372 518.378 951.372 519.248C951.372 520.117 951.027 520.951 950.412 521.566C949.797 522.181 948.964 522.526 948.094 522.526Z" fill="#E1E5EF"/>
<path d="M948.094 534.264H825.092C824.222 534.264 823.388 533.919 822.774 533.304C822.159 532.689 821.813 531.855 821.813 530.986C821.813 530.117 822.159 529.283 822.774 528.668C823.388 528.053 824.222 527.708 825.092 527.708H948.094C948.964 527.708 949.797 528.053 950.412 528.668C951.027 529.283 951.372 530.117 951.372 530.986C951.372 531.855 951.027 532.689 950.412 533.304C949.797 533.919 948.964 534.264 948.094 534.264Z" fill="#E1E5EF"/>
<path d="M887.905 546.021H825.092C824.222 546.021 823.388 545.676 822.774 545.061C822.159 544.446 821.813 543.612 821.813 542.743C821.813 542.312 821.897 541.885 822.062 541.487C822.226 541.089 822.467 540.727 822.772 540.422C823.076 540.117 823.438 539.875 823.836 539.71C824.234 539.545 824.661 539.46 825.092 539.46H887.905C888.775 539.461 889.609 539.808 890.223 540.423C890.838 541.039 891.183 541.873 891.183 542.743C891.182 543.612 890.836 544.445 890.222 545.06C889.607 545.674 888.774 546.02 887.905 546.021Z" fill="#E1E5EF"/>
<path d="M948.094 576.361H825.092C824.222 576.361 823.388 576.015 822.774 575.401C822.159 574.786 821.813 573.952 821.813 573.083C821.813 572.213 822.159 571.379 822.774 570.765C823.388 570.15 824.222 569.804 825.092 569.804H948.094C948.964 569.804 949.797 570.15 950.412 570.765C951.027 571.379 951.372 572.213 951.372 573.083C951.372 573.952 951.027 574.786 950.412 575.401C949.797 576.015 948.964 576.361 948.094 576.361Z" fill="#E1E5EF"/>
<path d="M948.094 588.099H825.092C824.222 588.099 823.388 587.753 822.774 587.139C822.159 586.524 821.813 585.69 821.813 584.821C821.813 584.39 821.897 583.963 822.062 583.565C822.226 583.166 822.467 582.804 822.772 582.5C823.076 582.195 823.438 581.953 823.836 581.788C824.234 581.623 824.661 581.538 825.092 581.538H948.094C948.525 581.538 948.952 581.623 949.35 581.788C949.748 581.953 950.109 582.195 950.414 582.5C950.718 582.804 950.96 583.166 951.124 583.565C951.289 583.963 951.373 584.39 951.372 584.821C951.372 585.69 951.027 586.524 950.412 587.139C949.797 587.753 948.964 588.099 948.094 588.099Z" fill="#E1E5EF"/>
<path d="M887.905 599.851H825.092C824.222 599.851 823.388 599.505 822.774 598.891C822.159 598.276 821.813 597.442 821.813 596.573C821.813 595.703 822.159 594.869 822.774 594.255C823.388 593.64 824.222 593.294 825.092 593.294H887.905C888.774 593.296 889.607 593.641 890.222 594.256C890.836 594.87 891.182 595.704 891.183 596.573C891.183 597.442 890.838 598.276 890.223 598.891C889.608 599.505 888.775 599.851 887.905 599.851Z" fill="#E1E5EF"/>
<path d="M948.094 630.195H825.092C824.222 630.195 823.388 629.85 822.774 629.235C822.159 628.62 821.813 627.787 821.813 626.917C821.813 626.048 822.159 625.214 822.774 624.599C823.388 623.984 824.222 623.639 825.092 623.639H948.094C948.964 623.639 949.797 623.984 950.412 624.599C951.027 625.214 951.372 626.048 951.372 626.917C951.372 627.787 951.027 628.62 950.412 629.235C949.797 629.85 948.964 630.195 948.094 630.195Z" fill="#E1E5EF"/>
<path d="M948.094 641.933H825.092C824.661 641.933 824.234 641.848 823.836 641.683C823.438 641.518 823.076 641.276 822.772 640.971C822.467 640.666 822.226 640.304 822.062 639.906C821.897 639.508 821.813 639.081 821.813 638.65C821.813 637.781 822.159 636.947 822.774 636.332C823.388 635.717 824.222 635.372 825.092 635.372H948.094C948.964 635.372 949.797 635.717 950.412 636.332C951.027 636.947 951.372 637.781 951.372 638.65C951.373 639.081 951.289 639.508 951.124 639.906C950.96 640.304 950.718 640.666 950.414 640.971C950.109 641.276 949.748 641.518 949.35 641.683C948.952 641.848 948.525 641.933 948.094 641.933Z" fill="#E1E5EF"/>
<path d="M887.905 653.685H825.092C824.222 653.685 823.388 653.34 822.774 652.725C822.159 652.11 821.813 651.276 821.813 650.407C821.813 649.538 822.159 648.704 822.774 648.089C823.388 647.474 824.222 647.129 825.092 647.129H887.905C888.775 647.129 889.608 647.474 890.223 648.089C890.838 648.704 891.183 649.538 891.183 650.407C891.183 651.276 890.838 652.11 890.223 652.725C889.608 653.34 888.775 653.685 887.905 653.685Z" fill="#E1E5EF"/>
<path d="M948.094 684.03H825.092C824.661 684.03 824.234 683.945 823.836 683.78C823.438 683.615 823.076 683.374 822.772 683.069C822.467 682.764 822.226 682.402 822.062 682.003C821.897 681.605 821.813 681.178 821.813 680.747C821.813 679.878 822.159 679.044 822.774 678.429C823.388 677.815 824.222 677.469 825.092 677.469H948.094C948.964 677.469 949.797 677.815 950.412 678.429C951.027 679.044 951.372 679.878 951.372 680.747C951.373 681.178 951.289 681.605 951.124 682.003C950.96 682.402 950.718 682.764 950.414 683.069C950.109 683.374 949.748 683.615 949.35 683.78C948.952 683.945 948.525 684.03 948.094 684.03Z" fill="#E1E5EF"/>
<path d="M948.094 695.768H825.092C824.222 695.768 823.388 695.422 822.774 694.808C822.159 694.193 821.813 693.359 821.813 692.49C821.813 691.62 822.159 690.786 822.774 690.172C823.388 689.557 824.222 689.211 825.092 689.211H948.094C948.964 689.211 949.797 689.557 950.412 690.172C951.027 690.786 951.372 691.62 951.372 692.49C951.372 693.359 951.027 694.193 950.412 694.808C949.797 695.422 948.964 695.768 948.094 695.768Z" fill="#E1E5EF"/>
<path d="M887.905 707.52H825.092C824.222 707.52 823.388 707.175 822.774 706.56C822.159 705.945 821.813 705.111 821.813 704.242C821.813 703.372 822.159 702.538 822.774 701.924C823.388 701.309 824.222 700.964 825.092 700.964H887.905C888.775 700.964 889.608 701.309 890.223 701.924C890.838 702.538 891.183 703.372 891.183 704.242C891.183 705.111 890.838 705.945 890.223 706.56C889.608 707.175 888.775 707.52 887.905 707.52Z" fill="#E1E5EF"/>
<path d="M787.811 618.26C786.179 618.261 784.614 618.91 783.461 620.065C782.307 621.219 781.659 622.785 781.659 624.417C781.659 631.021 787.811 639.933 787.811 639.933C787.811 639.933 793.964 631.021 793.964 624.417C793.964 622.785 793.316 621.219 792.162 620.065C791.009 618.91 789.444 618.261 787.811 618.26ZM787.811 627.032C787.208 627.032 786.617 626.853 786.115 626.517C785.613 626.182 785.222 625.705 784.991 625.147C784.76 624.589 784.7 623.975 784.818 623.382C784.936 622.79 785.228 622.246 785.655 621.82C786.082 621.393 786.627 621.103 787.219 620.986C787.811 620.868 788.425 620.929 788.983 621.161C789.541 621.393 790.017 621.785 790.352 622.287C790.686 622.79 790.865 623.381 790.864 623.985C790.864 624.385 790.785 624.782 790.631 625.152C790.478 625.522 790.253 625.858 789.969 626.141C789.686 626.424 789.349 626.648 788.979 626.801C788.609 626.954 788.212 627.033 787.811 627.032Z" fill="#8296C9"/>
<path d="M943.734 348.313H783.566C779.231 348.313 775.717 351.828 775.717 356.163V488.572C775.717 492.907 779.231 496.421 783.566 496.421H943.734C948.069 496.421 951.583 492.907 951.583 488.572V356.163C951.583 351.828 948.069 348.313 943.734 348.313Z" fill="#E1E5EF"/>
<path d="M794.166 399.505C793.884 399.505 793.614 399.393 793.415 399.194C793.216 398.994 793.104 398.724 793.104 398.442V367.68H823.866C824.148 367.68 824.418 367.792 824.618 367.991C824.817 368.19 824.929 368.46 824.929 368.742C824.929 369.024 824.817 369.294 824.618 369.493C824.418 369.692 824.148 369.804 823.866 369.804H795.209V398.457C795.207 398.733 795.096 398.998 794.901 399.193C794.706 399.389 794.442 399.501 794.166 399.505Z" fill="#8296C9"/>
<path d="M933.136 399.504C932.854 399.504 932.584 399.392 932.385 399.193C932.185 398.994 932.073 398.723 932.073 398.442V369.789H903.421C903.139 369.789 902.869 369.677 902.67 369.478C902.471 369.279 902.359 369.009 902.359 368.727C902.359 368.445 902.471 368.175 902.67 367.976C902.869 367.777 903.139 367.665 903.421 367.665H934.184V398.427C934.185 398.567 934.16 398.705 934.108 398.835C934.057 398.965 933.98 399.083 933.883 399.183C933.785 399.283 933.669 399.363 933.541 399.418C933.413 399.473 933.275 399.502 933.136 399.504Z" fill="#8296C9"/>
<path d="M934.198 477.064H903.435C903.153 477.064 902.883 476.953 902.684 476.753C902.485 476.554 902.373 476.284 902.373 476.002C902.373 475.72 902.485 475.45 902.684 475.251C902.883 475.052 903.153 474.94 903.435 474.94H932.088V446.302C932.088 446.02 932.199 445.75 932.399 445.551C932.598 445.351 932.868 445.24 933.15 445.24C933.432 445.24 933.702 445.351 933.901 445.551C934.1 445.75 934.212 446.02 934.212 446.302L934.198 477.064Z" fill="#8296C9"/>
<path d="M823.885 477.064H793.123V446.302C793.123 446.02 793.235 445.75 793.434 445.551C793.633 445.351 793.903 445.24 794.185 445.24C794.467 445.24 794.737 445.351 794.936 445.551C795.135 445.75 795.247 446.02 795.247 446.302V474.959H823.905C824.186 474.959 824.457 475.071 824.656 475.27C824.855 475.469 824.967 475.74 824.967 476.021C824.967 476.303 824.855 476.573 824.656 476.773C824.457 476.972 824.186 477.084 823.905 477.084L823.885 477.064Z" fill="#8296C9"/>
<path d="M907.526 381.33H805.908V462.101H907.526V381.33Z" fill="#F1CA89"/>
<path d="M918.913 381.33H884.378V462.101H918.913V381.33Z" fill="#F1B873"/>
<path d="M853.46 381.33H841.515V406.276H853.46V381.33Z" fill="white"/>
<path d="M907.526 381.33H897.85V406.276H907.526V381.33Z" fill="white"/>
<path d="M906.94 226.339H1032.39C1024.05 218.456 1011.19 214.048 1000 216.567C998.514 213.483 996.161 210.899 993.229 209.13C990.297 207.361 986.913 206.484 983.491 206.606C980.069 206.729 976.757 207.845 973.959 209.819C971.161 211.792 968.998 214.538 967.734 217.721C965.912 214.614 963.232 212.098 960.016 210.477C956.8 208.855 953.184 208.197 949.602 208.58C946.021 208.963 942.626 210.372 939.825 212.637C937.025 214.902 934.937 217.927 933.814 221.35C925.239 215.245 913.145 217.807 906.94 226.339Z" fill="white"/>
<path d="M281.611 443.759H199.393V444.466H281.611V443.759Z" fill="#8296C9"/>
<path d="M236.405 423.004H167.093V423.711H236.405V423.004Z" fill="#8296C9"/>
<path d="M267.687 423.004H251.21V423.711H267.687V423.004Z" fill="#8296C9"/>
<path d="M290.658 407.272H220.486V407.978H290.658V407.272Z" fill="#8296C9"/>
<path d="M570.972 246.498H495.81V247.118H570.972V246.498Z" fill="#8296C9"/>
<path d="M607.182 275.944H542.215V276.564H607.182V275.944Z" fill="#8296C9"/>
<path d="M1232.82 252.924H1151.7V253.631H1232.82V252.924Z" fill="#8296C9"/>
<path d="M1252.25 271.397H1192.26V272.104H1252.25V271.397Z" fill="#8296C9"/>
<path d="M1017.53 174.331H943.446V175.038H1017.53V174.331Z" fill="#8296C9"/>
<path d="M1030.59 162.564H984.846V163.271H1030.59V162.564Z" fill="#8296C9"/>
<path d="M1075.24 629.618H962.394V732.226H1075.24V629.618Z" fill="#F1CA89"/>
<path d="M1119.48 629.618H1073.57V732.226H1119.48V629.618Z" fill="#F1B873"/>
<path d="M1027.63 629.618H1013.83V732.226H1027.63V629.618Z" fill="white"/>
<path d="M1102.43 629.618H1093.67V732.332H1102.43V629.618Z" fill="white"/>
<path d="M1065.21 556.947H985.346V629.57H1065.21V556.947Z" fill="#F1CA89"/>
<path d="M1096.52 556.947H1064.03V629.57H1096.52V556.947Z" fill="#F1B873"/>
<path d="M1031.52 556.947H1021.75V629.57H1031.52V556.947Z" fill="white"/>
<path d="M1084.46 556.947H1078.26V629.643H1084.46V556.947Z" fill="white"/>
<path d="M1064.03 628.422H985.346V630.724H1064.03V628.422Z" fill="#F1B873"/>
<path d="M1320.64 731.27H65.0281V733.394H1320.64V731.27Z" fill="#39548B"/>
</g>
</g>
<defs>
<clipPath id="clip0_9_4584">
<rect width="1442" height="834" fill="white" transform="translate(-28)"/>
</clipPath>
<clipPath id="clip1_9_4584">
<rect width="1442" height="865.2" fill="white" transform="translate(-28 -31)"/>
</clipPath>
</defs>
</svg>
