<svg width="45" height="44" viewBox="0 0 45 44" fill="none" xmlns="http://www.w3.org/2000/svg">
<rect x="0.5" width="44" height="44" rx="12" fill="#0217EB" fill-opacity="0.1"/>
<mask id="mask0_1_3074" style="mask-type:alpha" maskUnits="userSpaceOnUse" x="10" y="10" width="25" height="24">
<rect x="10.5" y="10" width="24" height="24" fill="#D9D9D9"/>
</mask>
<g mask="url(#mask0_1_3074)">
<path d="M15.05 29C14.2 29 13.5417 28.7042 13.075 28.1125C12.6083 27.5208 12.4333 26.8 12.55 25.95L13.6 18.45C13.75 17.45 14.1958 16.625 14.9375 15.975C15.6792 15.325 16.55 15 17.55 15H27.45C28.45 15 29.3208 15.325 30.0625 15.975C30.8042 16.625 31.25 17.45 31.4 18.45L32.45 25.95C32.5667 26.8 32.3917 27.5208 31.925 28.1125C31.4583 28.7042 30.8 29 29.95 29C29.6 29 29.275 28.9375 28.975 28.8125C28.675 28.6875 28.4 28.5 28.15 28.25L25.9 26H19.1L16.85 28.25C16.6 28.5 16.325 28.6875 16.025 28.8125C15.725 28.9375 15.4 29 15.05 29ZM15.45 26.85L18.3 24H26.7L29.55 26.85C29.5833 26.8833 29.7167 26.9333 29.95 27C30.1333 27 30.2792 26.9458 30.3875 26.8375C30.4958 26.7292 30.5333 26.5833 30.5 26.4L29.4 18.7C29.3333 18.2167 29.1167 17.8125 28.75 17.4875C28.3833 17.1625 27.95 17 27.45 17H17.55C17.05 17 16.6167 17.1625 16.25 17.4875C15.8833 17.8125 15.6667 18.2167 15.6 18.7L14.5 26.4C14.4667 26.5833 14.5042 26.7292 14.6125 26.8375C14.7208 26.9458 14.8667 27 15.05 27C15.0833 27 15.2167 26.95 15.45 26.85ZM27.5 23C27.7833 23 28.0208 22.9042 28.2125 22.7125C28.4042 22.5208 28.5 22.2833 28.5 22C28.5 21.7167 28.4042 21.4792 28.2125 21.2875C28.0208 21.0958 27.7833 21 27.5 21C27.2167 21 26.9792 21.0958 26.7875 21.2875C26.5958 21.4792 26.5 21.7167 26.5 22C26.5 22.2833 26.5958 22.5208 26.7875 22.7125C26.9792 22.9042 27.2167 23 27.5 23ZM25.5 20C25.7833 20 26.0208 19.9042 26.2125 19.7125C26.4042 19.5208 26.5 19.2833 26.5 19C26.5 18.7167 26.4042 18.4792 26.2125 18.2875C26.0208 18.0958 25.7833 18 25.5 18C25.2167 18 24.9792 18.0958 24.7875 18.2875C24.5958 18.4792 24.5 18.7167 24.5 19C24.5 19.2833 24.5958 19.5208 24.7875 19.7125C24.9792 19.9042 25.2167 20 25.5 20ZM18.25 23H19.75V21.25H21.5V19.75H19.75V18H18.25V19.75H16.5V21.25H18.25V23Z" fill="#0217EB"/>
</g>
</svg>
