<svg width="428" height="609" viewBox="0 0 428 609" fill="none" xmlns="http://www.w3.org/2000/svg">
<g clip-path="url(#clip0_1_10033)">
<path d="M0 33C0 14.7746 14.7746 0 33 0H395C413.225 0 428 14.7746 428 33V609H0V33Z" fill="#00042F"/>
<g opacity="0.03">
<g clip-path="url(#clip1_1_10033)">
<path d="M85.4024 -5.90171C85.4024 5.38163 76.2755 14.5086 64.9921 14.5086H55.0628L23.0682 -26.312H65.0423C76.2755 -26.312 85.4024 -17.185 85.4024 -5.90171Z" fill="#0217EB"/>
<path d="M71.9626 14.4585C71.9626 25.7419 62.8357 34.8689 51.5523 34.8689H0L32.0447 -5.90161H51.6025C62.8357 -5.90161 71.9626 3.22536 71.9626 14.4585Z" fill="#00FFC6"/>
<path opacity="0.49" d="M85.4024 -5.90171C85.4024 5.38163 76.2755 14.5086 64.9921 14.5086H55.0628L23.0682 -26.312H65.0423C76.2755 -26.312 85.4024 -17.185 85.4024 -5.90171Z" fill="#0217EB"/>
</g>
<g clip-path="url(#clip2_1_10033)">
<path d="M171.052 -5.90171C171.052 5.38163 161.925 14.5086 150.642 14.5086H140.712L108.718 -26.312H150.692C161.925 -26.312 171.052 -17.185 171.052 -5.90171Z" fill="#0217EB"/>
<path d="M157.612 14.4585C157.612 25.7419 148.485 34.8689 137.202 34.8689H85.6494L117.694 -5.90161H137.252C148.485 -5.90161 157.612 3.22536 157.612 14.4585Z" fill="#00FFC6"/>
<path opacity="0.49" d="M171.052 -5.90171C171.052 5.38163 161.925 14.5086 150.642 14.5086H140.712L108.718 -26.312H150.692C161.925 -26.312 171.052 -17.185 171.052 -5.90171Z" fill="#0217EB"/>
</g>
<g clip-path="url(#clip3_1_10033)">
<path d="M256.701 -5.90171C256.701 5.38163 247.574 14.5086 236.291 14.5086H226.361L194.367 -26.312H236.341C247.574 -26.312 256.701 -17.185 256.701 -5.90171Z" fill="#0217EB"/>
<path d="M243.261 14.4585C243.261 25.7419 234.134 34.8689 222.851 34.8689H171.299L203.343 -5.90161H222.901C234.134 -5.90161 243.261 3.22536 243.261 14.4585Z" fill="#00FFC6"/>
<path opacity="0.49" d="M256.701 -5.90171C256.701 5.38163 247.574 14.5086 236.291 14.5086H226.361L194.367 -26.312H236.341C247.574 -26.312 256.701 -17.185 256.701 -5.90171Z" fill="#0217EB"/>
</g>
<g clip-path="url(#clip4_1_10033)">
<path d="M342.351 -5.90171C342.351 5.38163 333.224 14.5086 321.94 14.5086H312.011L280.016 -26.312H321.991C333.224 -26.312 342.351 -17.185 342.351 -5.90171Z" fill="#0217EB"/>
<path d="M328.911 14.4585C328.911 25.7419 319.784 34.8689 308.501 34.8689H256.948L288.993 -5.90161H308.551C319.784 -5.90161 328.911 3.22536 328.911 14.4585Z" fill="#00FFC6"/>
<path opacity="0.49" d="M342.351 -5.90171C342.351 5.38163 333.224 14.5086 321.94 14.5086H312.011L280.016 -26.312H321.991C333.224 -26.312 342.351 -17.185 342.351 -5.90171Z" fill="#0217EB"/>
</g>
<g clip-path="url(#clip5_1_10033)">
<path d="M428 -5.90171C428 5.38163 418.873 14.5086 407.59 14.5086H397.66L365.666 -26.312H407.64C418.873 -26.312 428 -17.185 428 -5.90171Z" fill="#0217EB"/>
<path d="M414.56 14.4585C414.56 25.7419 405.433 34.8689 394.15 34.8689H342.598L374.642 -5.90161H394.2C405.433 -5.90161 414.56 3.22536 414.56 14.4585Z" fill="#00FFC6"/>
<path opacity="0.49" d="M428 -5.90171C428 5.38163 418.873 14.5086 407.59 14.5086H397.66L365.666 -26.312H407.64C418.873 -26.312 428 -17.185 428 -5.90171Z" fill="#0217EB"/>
</g>
<g clip-path="url(#clip6_1_10033)">
<path d="M85.4024 55.279C85.4024 66.5623 76.2755 75.6893 64.9921 75.6893H55.0628L23.0682 34.8687H65.0423C76.2755 34.8687 85.4024 43.9956 85.4024 55.279Z" fill="#0217EB"/>
<path d="M71.9626 75.6392C71.9626 86.9225 62.8357 96.0495 51.5523 96.0495H0L32.0447 55.2791H51.6025C62.8357 55.2791 71.9626 64.406 71.9626 75.6392Z" fill="#00FFC6"/>
<path opacity="0.49" d="M85.4024 55.279C85.4024 66.5623 76.2755 75.6893 64.9921 75.6893H55.0628L23.0682 34.8687H65.0423C76.2755 34.8687 85.4024 43.9956 85.4024 55.279Z" fill="#0217EB"/>
</g>
<g clip-path="url(#clip7_1_10033)">
<path d="M171.052 55.279C171.052 66.5623 161.925 75.6893 150.642 75.6893H140.712L108.718 34.8687H150.692C161.925 34.8687 171.052 43.9956 171.052 55.279Z" fill="#0217EB"/>
<path d="M157.612 75.6392C157.612 86.9225 148.485 96.0495 137.202 96.0495H85.6494L117.694 55.2791H137.252C148.485 55.2791 157.612 64.406 157.612 75.6392Z" fill="#00FFC6"/>
<path opacity="0.49" d="M171.052 55.279C171.052 66.5623 161.925 75.6893 150.642 75.6893H140.712L108.718 34.8687H150.692C161.925 34.8687 171.052 43.9956 171.052 55.279Z" fill="#0217EB"/>
</g>
<g clip-path="url(#clip8_1_10033)">
<path d="M256.701 55.279C256.701 66.5623 247.574 75.6893 236.291 75.6893H226.361L194.367 34.8687H236.341C247.574 34.8687 256.701 43.9956 256.701 55.279Z" fill="#0217EB"/>
<path d="M243.261 75.6392C243.261 86.9225 234.134 96.0495 222.851 96.0495H171.299L203.343 55.2791H222.901C234.134 55.2791 243.261 64.406 243.261 75.6392Z" fill="#00FFC6"/>
<path opacity="0.49" d="M256.701 55.279C256.701 66.5623 247.574 75.6893 236.291 75.6893H226.361L194.367 34.8687H236.341C247.574 34.8687 256.701 43.9956 256.701 55.279Z" fill="#0217EB"/>
</g>
<g clip-path="url(#clip9_1_10033)">
<path d="M342.351 55.279C342.351 66.5623 333.224 75.6893 321.94 75.6893H312.011L280.016 34.8687H321.991C333.224 34.8687 342.351 43.9956 342.351 55.279Z" fill="#0217EB"/>
<path d="M328.911 75.6392C328.911 86.9225 319.784 96.0495 308.501 96.0495H256.948L288.993 55.2791H308.551C319.784 55.2791 328.911 64.406 328.911 75.6392Z" fill="#00FFC6"/>
<path opacity="0.49" d="M342.351 55.279C342.351 66.5623 333.224 75.6893 321.94 75.6893H312.011L280.016 34.8687H321.991C333.224 34.8687 342.351 43.9956 342.351 55.279Z" fill="#0217EB"/>
</g>
<g clip-path="url(#clip10_1_10033)">
<path d="M428 55.279C428 66.5623 418.873 75.6893 407.59 75.6893H397.66L365.666 34.8687H407.64C418.873 34.8687 428 43.9956 428 55.279Z" fill="#0217EB"/>
<path d="M414.56 75.6392C414.56 86.9225 405.433 96.0495 394.15 96.0495H342.598L374.642 55.2791H394.2C405.433 55.2791 414.56 64.406 414.56 75.6392Z" fill="#00FFC6"/>
<path opacity="0.49" d="M428 55.279C428 66.5623 418.873 75.6893 407.59 75.6893H397.66L365.666 34.8687H407.64C418.873 34.8687 428 43.9956 428 55.279Z" fill="#0217EB"/>
</g>
<g clip-path="url(#clip11_1_10033)">
<path d="M85.4024 116.46C85.4024 127.743 76.2755 136.87 64.9921 136.87H55.0628L23.0682 96.0496H65.0423C76.2755 96.0496 85.4024 105.177 85.4024 116.46Z" fill="#0217EB"/>
<path d="M71.9626 136.82C71.9626 148.103 62.8357 157.23 51.5523 157.23H0L32.0447 116.46H51.6025C62.8357 116.46 71.9626 125.587 71.9626 136.82Z" fill="#00FFC6"/>
<path opacity="0.49" d="M85.4024 116.46C85.4024 127.743 76.2755 136.87 64.9921 136.87H55.0628L23.0682 96.0496H65.0423C76.2755 96.0496 85.4024 105.177 85.4024 116.46Z" fill="#0217EB"/>
</g>
<g clip-path="url(#clip12_1_10033)">
<path d="M171.052 116.46C171.052 127.743 161.925 136.87 150.642 136.87H140.712L108.718 96.0496H150.692C161.925 96.0496 171.052 105.177 171.052 116.46Z" fill="#0217EB"/>
<path d="M157.612 136.82C157.612 148.103 148.485 157.23 137.202 157.23H85.6494L117.694 116.46H137.252C148.485 116.46 157.612 125.587 157.612 136.82Z" fill="#00FFC6"/>
<path opacity="0.49" d="M171.052 116.46C171.052 127.743 161.925 136.87 150.642 136.87H140.712L108.718 96.0496H150.692C161.925 96.0496 171.052 105.177 171.052 116.46Z" fill="#0217EB"/>
</g>
<g clip-path="url(#clip13_1_10033)">
<path d="M256.701 116.46C256.701 127.743 247.574 136.87 236.291 136.87H226.361L194.367 96.0496H236.341C247.574 96.0496 256.701 105.177 256.701 116.46Z" fill="#0217EB"/>
<path d="M243.261 136.82C243.261 148.103 234.134 157.23 222.851 157.23H171.299L203.343 116.46H222.901C234.134 116.46 243.261 125.587 243.261 136.82Z" fill="#00FFC6"/>
<path opacity="0.49" d="M256.701 116.46C256.701 127.743 247.574 136.87 236.291 136.87H226.361L194.367 96.0496H236.341C247.574 96.0496 256.701 105.177 256.701 116.46Z" fill="#0217EB"/>
</g>
<g clip-path="url(#clip14_1_10033)">
<path d="M342.351 116.46C342.351 127.743 333.224 136.87 321.94 136.87H312.011L280.016 96.0496H321.991C333.224 96.0496 342.351 105.177 342.351 116.46Z" fill="#0217EB"/>
<path d="M328.911 136.82C328.911 148.103 319.784 157.23 308.501 157.23H256.948L288.993 116.46H308.551C319.784 116.46 328.911 125.587 328.911 136.82Z" fill="#00FFC6"/>
<path opacity="0.49" d="M342.351 116.46C342.351 127.743 333.224 136.87 321.94 136.87H312.011L280.016 96.0496H321.991C333.224 96.0496 342.351 105.177 342.351 116.46Z" fill="#0217EB"/>
</g>
<g clip-path="url(#clip15_1_10033)">
<path d="M428 116.46C428 127.743 418.873 136.87 407.59 136.87H397.66L365.666 96.0496H407.64C418.873 96.0496 428 105.177 428 116.46Z" fill="#0217EB"/>
<path d="M414.56 136.82C414.56 148.103 405.433 157.23 394.15 157.23H342.598L374.642 116.46H394.2C405.433 116.46 414.56 125.587 414.56 136.82Z" fill="#00FFC6"/>
<path opacity="0.49" d="M428 116.46C428 127.743 418.873 136.87 407.59 136.87H397.66L365.666 96.0496H407.64C418.873 96.0496 428 105.177 428 116.46Z" fill="#0217EB"/>
</g>
<g clip-path="url(#clip16_1_10033)">
<path d="M85.4024 177.641C85.4024 188.924 76.2755 198.051 64.9921 198.051H55.0628L23.0682 157.23H65.0423C76.2755 157.23 85.4024 166.357 85.4024 177.641Z" fill="#0217EB"/>
<path d="M71.9626 198.001C71.9626 209.284 62.8357 218.411 51.5523 218.411H0L32.0447 177.64H51.6025C62.8357 177.64 71.9626 186.767 71.9626 198.001Z" fill="#00FFC6"/>
<path opacity="0.49" d="M85.4024 177.641C85.4024 188.924 76.2755 198.051 64.9921 198.051H55.0628L23.0682 157.23H65.0423C76.2755 157.23 85.4024 166.357 85.4024 177.641Z" fill="#0217EB"/>
</g>
<g clip-path="url(#clip17_1_10033)">
<path d="M171.052 177.641C171.052 188.924 161.925 198.051 150.642 198.051H140.712L108.718 157.23H150.692C161.925 157.23 171.052 166.357 171.052 177.641Z" fill="#0217EB"/>
<path d="M157.612 198.001C157.612 209.284 148.485 218.411 137.202 218.411H85.6494L117.694 177.64H137.252C148.485 177.64 157.612 186.767 157.612 198.001Z" fill="#00FFC6"/>
<path opacity="0.49" d="M171.052 177.641C171.052 188.924 161.925 198.051 150.642 198.051H140.712L108.718 157.23H150.692C161.925 157.23 171.052 166.357 171.052 177.641Z" fill="#0217EB"/>
</g>
<g clip-path="url(#clip18_1_10033)">
<path d="M256.701 177.641C256.701 188.924 247.574 198.051 236.291 198.051H226.361L194.367 157.23H236.341C247.574 157.23 256.701 166.357 256.701 177.641Z" fill="#0217EB"/>
<path d="M243.261 198.001C243.261 209.284 234.134 218.411 222.851 218.411H171.299L203.343 177.64H222.901C234.134 177.64 243.261 186.767 243.261 198.001Z" fill="#00FFC6"/>
<path opacity="0.49" d="M256.701 177.641C256.701 188.924 247.574 198.051 236.291 198.051H226.361L194.367 157.23H236.341C247.574 157.23 256.701 166.357 256.701 177.641Z" fill="#0217EB"/>
</g>
<g clip-path="url(#clip19_1_10033)">
<path d="M342.351 177.641C342.351 188.924 333.224 198.051 321.94 198.051H312.011L280.016 157.23H321.991C333.224 157.23 342.351 166.357 342.351 177.641Z" fill="#0217EB"/>
<path d="M328.911 198.001C328.911 209.284 319.784 218.411 308.501 218.411H256.948L288.993 177.64H308.551C319.784 177.64 328.911 186.767 328.911 198.001Z" fill="#00FFC6"/>
<path opacity="0.49" d="M342.351 177.641C342.351 188.924 333.224 198.051 321.94 198.051H312.011L280.016 157.23H321.991C333.224 157.23 342.351 166.357 342.351 177.641Z" fill="#0217EB"/>
</g>
<g clip-path="url(#clip20_1_10033)">
<path d="M428 177.641C428 188.924 418.873 198.051 407.59 198.051H397.66L365.666 157.23H407.64C418.873 157.23 428 166.357 428 177.641Z" fill="#0217EB"/>
<path d="M414.56 198.001C414.56 209.284 405.433 218.411 394.15 218.411H342.598L374.642 177.64H394.2C405.433 177.64 414.56 186.767 414.56 198.001Z" fill="#00FFC6"/>
<path opacity="0.49" d="M428 177.641C428 188.924 418.873 198.051 407.59 198.051H397.66L365.666 157.23H407.64C418.873 157.23 428 166.357 428 177.641Z" fill="#0217EB"/>
</g>
<g clip-path="url(#clip21_1_10033)">
<path d="M85.4024 238.821C85.4024 250.105 76.2755 259.232 64.9921 259.232H55.0628L23.0682 218.411H65.0423C76.2755 218.411 85.4024 227.538 85.4024 238.821Z" fill="#0217EB"/>
<path d="M71.9626 259.182C71.9626 270.465 62.8357 279.592 51.5523 279.592H0L32.0447 238.822H51.6025C62.8357 238.822 71.9626 247.949 71.9626 259.182Z" fill="#00FFC6"/>
<path opacity="0.49" d="M85.4024 238.821C85.4024 250.105 76.2755 259.232 64.9921 259.232H55.0628L23.0682 218.411H65.0423C76.2755 218.411 85.4024 227.538 85.4024 238.821Z" fill="#0217EB"/>
</g>
<g clip-path="url(#clip22_1_10033)">
<path d="M171.052 238.821C171.052 250.105 161.925 259.232 150.642 259.232H140.712L108.718 218.411H150.692C161.925 218.411 171.052 227.538 171.052 238.821Z" fill="#0217EB"/>
<path d="M157.612 259.182C157.612 270.465 148.485 279.592 137.202 279.592H85.6494L117.694 238.822H137.252C148.485 238.822 157.612 247.949 157.612 259.182Z" fill="#00FFC6"/>
<path opacity="0.49" d="M171.052 238.821C171.052 250.105 161.925 259.232 150.642 259.232H140.712L108.718 218.411H150.692C161.925 218.411 171.052 227.538 171.052 238.821Z" fill="#0217EB"/>
</g>
<g clip-path="url(#clip23_1_10033)">
<path d="M256.701 238.821C256.701 250.105 247.574 259.232 236.291 259.232H226.361L194.367 218.411H236.341C247.574 218.411 256.701 227.538 256.701 238.821Z" fill="#0217EB"/>
<path d="M243.261 259.182C243.261 270.465 234.134 279.592 222.851 279.592H171.299L203.343 238.822H222.901C234.134 238.822 243.261 247.949 243.261 259.182Z" fill="#00FFC6"/>
<path opacity="0.49" d="M256.701 238.821C256.701 250.105 247.574 259.232 236.291 259.232H226.361L194.367 218.411H236.341C247.574 218.411 256.701 227.538 256.701 238.821Z" fill="#0217EB"/>
</g>
<g clip-path="url(#clip24_1_10033)">
<path d="M342.351 238.821C342.351 250.105 333.224 259.232 321.94 259.232H312.011L280.016 218.411H321.991C333.224 218.411 342.351 227.538 342.351 238.821Z" fill="#0217EB"/>
<path d="M328.911 259.182C328.911 270.465 319.784 279.592 308.501 279.592H256.948L288.993 238.822H308.551C319.784 238.822 328.911 247.949 328.911 259.182Z" fill="#00FFC6"/>
<path opacity="0.49" d="M342.351 238.821C342.351 250.105 333.224 259.232 321.94 259.232H312.011L280.016 218.411H321.991C333.224 218.411 342.351 227.538 342.351 238.821Z" fill="#0217EB"/>
</g>
<g clip-path="url(#clip25_1_10033)">
<path d="M428 238.821C428 250.105 418.873 259.232 407.59 259.232H397.66L365.666 218.411H407.64C418.873 218.411 428 227.538 428 238.821Z" fill="#0217EB"/>
<path d="M414.56 259.182C414.56 270.465 405.433 279.592 394.15 279.592H342.598L374.642 238.822H394.2C405.433 238.822 414.56 247.949 414.56 259.182Z" fill="#00FFC6"/>
<path opacity="0.49" d="M428 238.821C428 250.105 418.873 259.232 407.59 259.232H397.66L365.666 218.411H407.64C418.873 218.411 428 227.538 428 238.821Z" fill="#0217EB"/>
</g>
<g clip-path="url(#clip26_1_10033)">
<path d="M85.4024 300.002C85.4024 311.285 76.2755 320.412 64.9921 320.412H55.0628L23.0682 279.592H65.0423C76.2755 279.592 85.4024 288.719 85.4024 300.002Z" fill="#0217EB"/>
<path d="M71.9626 320.362C71.9626 331.646 62.8357 340.773 51.5523 340.773H0L32.0447 300.002H51.6025C62.8357 300.002 71.9626 309.129 71.9626 320.362Z" fill="#00FFC6"/>
<path opacity="0.49" d="M85.4024 300.002C85.4024 311.285 76.2755 320.412 64.9921 320.412H55.0628L23.0682 279.592H65.0423C76.2755 279.592 85.4024 288.719 85.4024 300.002Z" fill="#0217EB"/>
</g>
<g clip-path="url(#clip27_1_10033)">
<path d="M171.052 300.002C171.052 311.285 161.925 320.412 150.642 320.412H140.712L108.718 279.592H150.692C161.925 279.592 171.052 288.719 171.052 300.002Z" fill="#0217EB"/>
<path d="M157.612 320.362C157.612 331.646 148.485 340.773 137.202 340.773H85.6494L117.694 300.002H137.252C148.485 300.002 157.612 309.129 157.612 320.362Z" fill="#00FFC6"/>
<path opacity="0.49" d="M171.052 300.002C171.052 311.285 161.925 320.412 150.642 320.412H140.712L108.718 279.592H150.692C161.925 279.592 171.052 288.719 171.052 300.002Z" fill="#0217EB"/>
</g>
<g clip-path="url(#clip28_1_10033)">
<path d="M256.701 300.002C256.701 311.285 247.574 320.412 236.291 320.412H226.361L194.367 279.592H236.341C247.574 279.592 256.701 288.719 256.701 300.002Z" fill="#0217EB"/>
<path d="M243.261 320.362C243.261 331.646 234.134 340.773 222.851 340.773H171.299L203.343 300.002H222.901C234.134 300.002 243.261 309.129 243.261 320.362Z" fill="#00FFC6"/>
<path opacity="0.49" d="M256.701 300.002C256.701 311.285 247.574 320.412 236.291 320.412H226.361L194.367 279.592H236.341C247.574 279.592 256.701 288.719 256.701 300.002Z" fill="#0217EB"/>
</g>
<g clip-path="url(#clip29_1_10033)">
<path d="M342.351 300.002C342.351 311.285 333.224 320.412 321.94 320.412H312.011L280.016 279.592H321.991C333.224 279.592 342.351 288.719 342.351 300.002Z" fill="#0217EB"/>
<path d="M328.911 320.362C328.911 331.646 319.784 340.773 308.501 340.773H256.948L288.993 300.002H308.551C319.784 300.002 328.911 309.129 328.911 320.362Z" fill="#00FFC6"/>
<path opacity="0.49" d="M342.351 300.002C342.351 311.285 333.224 320.412 321.94 320.412H312.011L280.016 279.592H321.991C333.224 279.592 342.351 288.719 342.351 300.002Z" fill="#0217EB"/>
</g>
<g clip-path="url(#clip30_1_10033)">
<path d="M428 300.002C428 311.285 418.873 320.412 407.59 320.412H397.66L365.666 279.592H407.64C418.873 279.592 428 288.719 428 300.002Z" fill="#0217EB"/>
<path d="M414.56 320.362C414.56 331.646 405.433 340.773 394.15 340.773H342.598L374.642 300.002H394.2C405.433 300.002 414.56 309.129 414.56 320.362Z" fill="#00FFC6"/>
<path opacity="0.49" d="M428 300.002C428 311.285 418.873 320.412 407.59 320.412H397.66L365.666 279.592H407.64C418.873 279.592 428 288.719 428 300.002Z" fill="#0217EB"/>
</g>
<g clip-path="url(#clip31_1_10033)">
<path d="M85.4024 361.183C85.4024 372.466 76.2755 381.593 64.9921 381.593H55.0628L23.0682 340.773H65.0423C76.2755 340.773 85.4024 349.9 85.4024 361.183Z" fill="#0217EB"/>
<path d="M71.9626 381.543C71.9626 392.827 62.8357 401.954 51.5523 401.954H0L32.0447 361.183H51.6025C62.8357 361.183 71.9626 370.31 71.9626 381.543Z" fill="#00FFC6"/>
<path opacity="0.49" d="M85.4024 361.183C85.4024 372.466 76.2755 381.593 64.9921 381.593H55.0628L23.0682 340.773H65.0423C76.2755 340.773 85.4024 349.9 85.4024 361.183Z" fill="#0217EB"/>
</g>
<g clip-path="url(#clip32_1_10033)">
<path d="M171.052 361.183C171.052 372.466 161.925 381.593 150.642 381.593H140.712L108.718 340.773H150.692C161.925 340.773 171.052 349.9 171.052 361.183Z" fill="#0217EB"/>
<path d="M157.612 381.543C157.612 392.827 148.485 401.954 137.202 401.954H85.6494L117.694 361.183H137.252C148.485 361.183 157.612 370.31 157.612 381.543Z" fill="#00FFC6"/>
<path opacity="0.49" d="M171.052 361.183C171.052 372.466 161.925 381.593 150.642 381.593H140.712L108.718 340.773H150.692C161.925 340.773 171.052 349.9 171.052 361.183Z" fill="#0217EB"/>
</g>
<g clip-path="url(#clip33_1_10033)">
<path d="M256.701 361.183C256.701 372.466 247.574 381.593 236.291 381.593H226.361L194.367 340.773H236.341C247.574 340.773 256.701 349.9 256.701 361.183Z" fill="#0217EB"/>
<path d="M243.261 381.543C243.261 392.827 234.134 401.954 222.851 401.954H171.299L203.343 361.183H222.901C234.134 361.183 243.261 370.31 243.261 381.543Z" fill="#00FFC6"/>
<path opacity="0.49" d="M256.701 361.183C256.701 372.466 247.574 381.593 236.291 381.593H226.361L194.367 340.773H236.341C247.574 340.773 256.701 349.9 256.701 361.183Z" fill="#0217EB"/>
</g>
<g clip-path="url(#clip34_1_10033)">
<path d="M342.351 361.183C342.351 372.466 333.224 381.593 321.94 381.593H312.011L280.016 340.773H321.991C333.224 340.773 342.351 349.9 342.351 361.183Z" fill="#0217EB"/>
<path d="M328.911 381.543C328.911 392.827 319.784 401.954 308.501 401.954H256.948L288.993 361.183H308.551C319.784 361.183 328.911 370.31 328.911 381.543Z" fill="#00FFC6"/>
<path opacity="0.49" d="M342.351 361.183C342.351 372.466 333.224 381.593 321.94 381.593H312.011L280.016 340.773H321.991C333.224 340.773 342.351 349.9 342.351 361.183Z" fill="#0217EB"/>
</g>
<g clip-path="url(#clip35_1_10033)">
<path d="M428 361.183C428 372.466 418.873 381.593 407.59 381.593H397.66L365.666 340.773H407.64C418.873 340.773 428 349.9 428 361.183Z" fill="#0217EB"/>
<path d="M414.56 381.543C414.56 392.827 405.433 401.954 394.15 401.954H342.598L374.642 361.183H394.2C405.433 361.183 414.56 370.31 414.56 381.543Z" fill="#00FFC6"/>
<path opacity="0.49" d="M428 361.183C428 372.466 418.873 381.593 407.59 381.593H397.66L365.666 340.773H407.64C418.873 340.773 428 349.9 428 361.183Z" fill="#0217EB"/>
</g>
<g clip-path="url(#clip36_1_10033)">
<path d="M85.4024 422.364C85.4024 433.647 76.2755 442.774 64.9921 442.774H55.0628L23.0682 401.953H65.0423C76.2755 401.953 85.4024 411.08 85.4024 422.364Z" fill="#0217EB"/>
<path d="M71.9626 442.724C71.9626 454.007 62.8357 463.134 51.5523 463.134H0L32.0447 422.364H51.6025C62.8357 422.364 71.9626 431.491 71.9626 442.724Z" fill="#00FFC6"/>
<path opacity="0.49" d="M85.4024 422.364C85.4024 433.647 76.2755 442.774 64.9921 442.774H55.0628L23.0682 401.953H65.0423C76.2755 401.953 85.4024 411.08 85.4024 422.364Z" fill="#0217EB"/>
</g>
<g clip-path="url(#clip37_1_10033)">
<path d="M171.052 422.364C171.052 433.647 161.925 442.774 150.642 442.774H140.712L108.718 401.953H150.692C161.925 401.953 171.052 411.08 171.052 422.364Z" fill="#0217EB"/>
<path d="M157.612 442.724C157.612 454.007 148.485 463.134 137.202 463.134H85.6494L117.694 422.364H137.252C148.485 422.364 157.612 431.491 157.612 442.724Z" fill="#00FFC6"/>
<path opacity="0.49" d="M171.052 422.364C171.052 433.647 161.925 442.774 150.642 442.774H140.712L108.718 401.953H150.692C161.925 401.953 171.052 411.08 171.052 422.364Z" fill="#0217EB"/>
</g>
<g clip-path="url(#clip38_1_10033)">
<path d="M256.701 422.364C256.701 433.647 247.574 442.774 236.291 442.774H226.361L194.367 401.953H236.341C247.574 401.953 256.701 411.08 256.701 422.364Z" fill="#0217EB"/>
<path d="M243.261 442.724C243.261 454.007 234.134 463.134 222.851 463.134H171.299L203.343 422.364H222.901C234.134 422.364 243.261 431.491 243.261 442.724Z" fill="#00FFC6"/>
<path opacity="0.49" d="M256.701 422.364C256.701 433.647 247.574 442.774 236.291 442.774H226.361L194.367 401.953H236.341C247.574 401.953 256.701 411.08 256.701 422.364Z" fill="#0217EB"/>
</g>
<g clip-path="url(#clip39_1_10033)">
<path d="M342.351 422.364C342.351 433.647 333.224 442.774 321.94 442.774H312.011L280.016 401.953H321.991C333.224 401.953 342.351 411.08 342.351 422.364Z" fill="#0217EB"/>
<path d="M328.911 442.724C328.911 454.007 319.784 463.134 308.501 463.134H256.948L288.993 422.364H308.551C319.784 422.364 328.911 431.491 328.911 442.724Z" fill="#00FFC6"/>
<path opacity="0.49" d="M342.351 422.364C342.351 433.647 333.224 442.774 321.94 442.774H312.011L280.016 401.953H321.991C333.224 401.953 342.351 411.08 342.351 422.364Z" fill="#0217EB"/>
</g>
<g clip-path="url(#clip40_1_10033)">
<path d="M428 422.364C428 433.647 418.873 442.774 407.59 442.774H397.66L365.666 401.953H407.64C418.873 401.953 428 411.08 428 422.364Z" fill="#0217EB"/>
<path d="M414.56 442.724C414.56 454.007 405.433 463.134 394.15 463.134H342.598L374.642 422.364H394.2C405.433 422.364 414.56 431.491 414.56 442.724Z" fill="#00FFC6"/>
<path opacity="0.49" d="M428 422.364C428 433.647 418.873 442.774 407.59 442.774H397.66L365.666 401.953H407.64C418.873 401.953 428 411.08 428 422.364Z" fill="#0217EB"/>
</g>
<g clip-path="url(#clip41_1_10033)">
<path d="M85.4024 483.545C85.4024 494.828 76.2755 503.955 64.9921 503.955H55.0628L23.0682 463.134H65.0423C76.2755 463.134 85.4024 472.261 85.4024 483.545Z" fill="#0217EB"/>
<path d="M71.9626 503.905C71.9626 515.188 62.8357 524.315 51.5523 524.315H0L32.0447 483.545H51.6025C62.8357 483.545 71.9626 492.672 71.9626 503.905Z" fill="#00FFC6"/>
<path opacity="0.49" d="M85.4024 483.545C85.4024 494.828 76.2755 503.955 64.9921 503.955H55.0628L23.0682 463.134H65.0423C76.2755 463.134 85.4024 472.261 85.4024 483.545Z" fill="#0217EB"/>
</g>
<g clip-path="url(#clip42_1_10033)">
<path d="M171.052 483.545C171.052 494.828 161.925 503.955 150.642 503.955H140.712L108.718 463.134H150.692C161.925 463.134 171.052 472.261 171.052 483.545Z" fill="#0217EB"/>
<path d="M157.612 503.905C157.612 515.188 148.485 524.315 137.202 524.315H85.6494L117.694 483.545H137.252C148.485 483.545 157.612 492.672 157.612 503.905Z" fill="#00FFC6"/>
<path opacity="0.49" d="M171.052 483.545C171.052 494.828 161.925 503.955 150.642 503.955H140.712L108.718 463.134H150.692C161.925 463.134 171.052 472.261 171.052 483.545Z" fill="#0217EB"/>
</g>
<g clip-path="url(#clip43_1_10033)">
<path d="M256.701 483.545C256.701 494.828 247.574 503.955 236.291 503.955H226.361L194.367 463.134H236.341C247.574 463.134 256.701 472.261 256.701 483.545Z" fill="#0217EB"/>
<path d="M243.261 503.905C243.261 515.188 234.134 524.315 222.851 524.315H171.299L203.343 483.545H222.901C234.134 483.545 243.261 492.672 243.261 503.905Z" fill="#00FFC6"/>
<path opacity="0.49" d="M256.701 483.545C256.701 494.828 247.574 503.955 236.291 503.955H226.361L194.367 463.134H236.341C247.574 463.134 256.701 472.261 256.701 483.545Z" fill="#0217EB"/>
</g>
<g clip-path="url(#clip44_1_10033)">
<path d="M342.351 483.545C342.351 494.828 333.224 503.955 321.94 503.955H312.011L280.016 463.134H321.991C333.224 463.134 342.351 472.261 342.351 483.545Z" fill="#0217EB"/>
<path d="M328.911 503.905C328.911 515.188 319.784 524.315 308.501 524.315H256.948L288.993 483.545H308.551C319.784 483.545 328.911 492.672 328.911 503.905Z" fill="#00FFC6"/>
<path opacity="0.49" d="M342.351 483.545C342.351 494.828 333.224 503.955 321.94 503.955H312.011L280.016 463.134H321.991C333.224 463.134 342.351 472.261 342.351 483.545Z" fill="#0217EB"/>
</g>
<g clip-path="url(#clip45_1_10033)">
<path d="M428 483.545C428 494.828 418.873 503.955 407.59 503.955H397.66L365.666 463.134H407.64C418.873 463.134 428 472.261 428 483.545Z" fill="#0217EB"/>
<path d="M414.56 503.905C414.56 515.188 405.433 524.315 394.15 524.315H342.598L374.642 483.545H394.2C405.433 483.545 414.56 492.672 414.56 503.905Z" fill="#00FFC6"/>
<path opacity="0.49" d="M428 483.545C428 494.828 418.873 503.955 407.59 503.955H397.66L365.666 463.134H407.64C418.873 463.134 428 472.261 428 483.545Z" fill="#0217EB"/>
</g>
<g clip-path="url(#clip46_1_10033)">
<path d="M85.4024 544.725C85.4024 556.009 76.2755 565.136 64.9921 565.136H55.0628L23.0682 524.315H65.0423C76.2755 524.315 85.4024 533.442 85.4024 544.725Z" fill="#0217EB"/>
<path d="M71.9626 565.086C71.9626 576.369 62.8357 585.496 51.5523 585.496H0L32.0447 544.725H51.6025C62.8357 544.725 71.9626 553.852 71.9626 565.086Z" fill="#00FFC6"/>
<path opacity="0.49" d="M85.4024 544.725C85.4024 556.009 76.2755 565.136 64.9921 565.136H55.0628L23.0682 524.315H65.0423C76.2755 524.315 85.4024 533.442 85.4024 544.725Z" fill="#0217EB"/>
</g>
<g clip-path="url(#clip47_1_10033)">
<path d="M171.052 544.725C171.052 556.009 161.925 565.136 150.642 565.136H140.712L108.718 524.315H150.692C161.925 524.315 171.052 533.442 171.052 544.725Z" fill="#0217EB"/>
<path d="M157.612 565.086C157.612 576.369 148.485 585.496 137.202 585.496H85.6494L117.694 544.725H137.252C148.485 544.725 157.612 553.852 157.612 565.086Z" fill="#00FFC6"/>
<path opacity="0.49" d="M171.052 544.725C171.052 556.009 161.925 565.136 150.642 565.136H140.712L108.718 524.315H150.692C161.925 524.315 171.052 533.442 171.052 544.725Z" fill="#0217EB"/>
</g>
<g clip-path="url(#clip48_1_10033)">
<path d="M256.701 544.725C256.701 556.009 247.574 565.136 236.291 565.136H226.361L194.367 524.315H236.341C247.574 524.315 256.701 533.442 256.701 544.725Z" fill="#0217EB"/>
<path d="M243.261 565.086C243.261 576.369 234.134 585.496 222.851 585.496H171.299L203.343 544.725H222.901C234.134 544.725 243.261 553.852 243.261 565.086Z" fill="#00FFC6"/>
<path opacity="0.49" d="M256.701 544.725C256.701 556.009 247.574 565.136 236.291 565.136H226.361L194.367 524.315H236.341C247.574 524.315 256.701 533.442 256.701 544.725Z" fill="#0217EB"/>
</g>
<g clip-path="url(#clip49_1_10033)">
<path d="M342.351 544.725C342.351 556.009 333.224 565.136 321.94 565.136H312.011L280.016 524.315H321.991C333.224 524.315 342.351 533.442 342.351 544.725Z" fill="#0217EB"/>
<path d="M328.911 565.086C328.911 576.369 319.784 585.496 308.501 585.496H256.948L288.993 544.725H308.551C319.784 544.725 328.911 553.852 328.911 565.086Z" fill="#00FFC6"/>
<path opacity="0.49" d="M342.351 544.725C342.351 556.009 333.224 565.136 321.94 565.136H312.011L280.016 524.315H321.991C333.224 524.315 342.351 533.442 342.351 544.725Z" fill="#0217EB"/>
</g>
<g clip-path="url(#clip50_1_10033)">
<path d="M428 544.725C428 556.009 418.873 565.136 407.59 565.136H397.66L365.666 524.315H407.64C418.873 524.315 428 533.442 428 544.725Z" fill="#0217EB"/>
<path d="M414.56 565.086C414.56 576.369 405.433 585.496 394.15 585.496H342.598L374.642 544.725H394.2C405.433 544.725 414.56 553.852 414.56 565.086Z" fill="#00FFC6"/>
<path opacity="0.49" d="M428 544.725C428 556.009 418.873 565.136 407.59 565.136H397.66L365.666 524.315H407.64C418.873 524.315 428 533.442 428 544.725Z" fill="#0217EB"/>
</g>
<g clip-path="url(#clip51_1_10033)">
<path d="M85.4024 605.906C85.4024 617.189 76.2755 626.316 64.9921 626.316H55.0628L23.0682 585.496H65.0423C76.2755 585.496 85.4024 594.623 85.4024 605.906Z" fill="#0217EB"/>
<path d="M71.9626 626.266C71.9626 637.55 62.8357 646.676 51.5523 646.676H0L32.0447 605.906H51.6025C62.8357 605.906 71.9626 615.033 71.9626 626.266Z" fill="#00FFC6"/>
<path opacity="0.49" d="M85.4024 605.906C85.4024 617.189 76.2755 626.316 64.9921 626.316H55.0628L23.0682 585.496H65.0423C76.2755 585.496 85.4024 594.623 85.4024 605.906Z" fill="#0217EB"/>
</g>
<g clip-path="url(#clip52_1_10033)">
<path d="M171.052 605.906C171.052 617.189 161.925 626.316 150.642 626.316H140.712L108.718 585.496H150.692C161.925 585.496 171.052 594.623 171.052 605.906Z" fill="#0217EB"/>
<path d="M157.612 626.266C157.612 637.55 148.485 646.676 137.202 646.676H85.6494L117.694 605.906H137.252C148.485 605.906 157.612 615.033 157.612 626.266Z" fill="#00FFC6"/>
<path opacity="0.49" d="M171.052 605.906C171.052 617.189 161.925 626.316 150.642 626.316H140.712L108.718 585.496H150.692C161.925 585.496 171.052 594.623 171.052 605.906Z" fill="#0217EB"/>
</g>
<g clip-path="url(#clip53_1_10033)">
<path d="M256.701 605.906C256.701 617.189 247.574 626.316 236.291 626.316H226.361L194.367 585.496H236.341C247.574 585.496 256.701 594.623 256.701 605.906Z" fill="#0217EB"/>
<path d="M243.261 626.266C243.261 637.55 234.134 646.676 222.851 646.676H171.299L203.343 605.906H222.901C234.134 605.906 243.261 615.033 243.261 626.266Z" fill="#00FFC6"/>
<path opacity="0.49" d="M256.701 605.906C256.701 617.189 247.574 626.316 236.291 626.316H226.361L194.367 585.496H236.341C247.574 585.496 256.701 594.623 256.701 605.906Z" fill="#0217EB"/>
</g>
<g clip-path="url(#clip54_1_10033)">
<path d="M342.351 605.906C342.351 617.189 333.224 626.316 321.94 626.316H312.011L280.016 585.496H321.991C333.224 585.496 342.351 594.623 342.351 605.906Z" fill="#0217EB"/>
<path d="M328.911 626.266C328.911 637.55 319.784 646.676 308.501 646.676H256.948L288.993 605.906H308.551C319.784 605.906 328.911 615.033 328.911 626.266Z" fill="#00FFC6"/>
<path opacity="0.49" d="M342.351 605.906C342.351 617.189 333.224 626.316 321.94 626.316H312.011L280.016 585.496H321.991C333.224 585.496 342.351 594.623 342.351 605.906Z" fill="#0217EB"/>
</g>
<g clip-path="url(#clip55_1_10033)">
<path d="M428 605.906C428 617.189 418.873 626.316 407.59 626.316H397.66L365.666 585.496H407.64C418.873 585.496 428 594.623 428 605.906Z" fill="#0217EB"/>
<path d="M414.56 626.266C414.56 637.55 405.433 646.676 394.15 646.676H342.598L374.642 605.906H394.2C405.433 605.906 414.56 615.033 414.56 626.266Z" fill="#00FFC6"/>
<path opacity="0.49" d="M428 605.906C428 617.189 418.873 626.316 407.59 626.316H397.66L365.666 585.496H407.64C418.873 585.496 428 594.623 428 605.906Z" fill="#0217EB"/>
</g>
</g>
<g clip-path="url(#clip56_1_10033)">
<path d="M155.645 96.1054C155.645 103.193 149.912 108.926 142.825 108.926H136.588L116.49 83.2847H142.856C149.912 83.2847 155.645 89.0178 155.645 96.1054Z" fill="#0217EB"/>
<path d="M147.203 108.895C147.203 115.982 141.47 121.715 134.383 121.715H102L122.129 96.1055H134.414C141.47 96.1055 147.203 101.839 147.203 108.895Z" fill="#00FFC6"/>
<path opacity="0.49" d="M155.645 96.1054C155.645 103.193 149.912 108.926 142.825 108.926H136.588L116.49 83.2847H142.856C149.912 83.2847 155.645 89.0178 155.645 96.1054Z" fill="#0217EB"/>
</g>
<path d="M170.794 105.79C170.671 111.467 175.613 116.449 181.289 116.327C186.925 116.449 191.907 111.467 191.825 105.79C191.907 100.114 186.925 95.1316 181.289 95.2541C178.635 95.2541 176.429 96.3568 174.837 98.1945V87.4132H170.794V105.79ZM174.755 105.79C174.755 102.074 177.614 99.1338 181.289 99.1338C184.965 99.1338 187.823 102.074 187.823 105.79C187.823 109.507 184.965 112.447 181.289 112.447C177.614 112.447 174.755 109.507 174.755 105.79ZM194.37 117.838C195.8 121.717 198.985 124.168 203.069 124.168C208.214 124.168 212.053 120.166 212.053 114.979V95.5808H208.051V106.566C208.051 110.487 206.295 112.447 203.069 112.447C199.843 112.447 198.087 110.405 198.087 106.321V95.5808H194.084V106.321C194.084 112.978 197.637 116.327 203.069 116.327C205.07 116.327 206.867 115.632 208.01 114.366V115.469C208.01 118.287 206.132 120.288 203.069 120.288C201.231 120.288 199.843 119.471 198.862 117.838H194.37ZM232.962 107.751C232.962 104.32 231.166 101.747 227.735 100.4C229.409 99.2971 230.757 97.3369 230.757 94.1923C230.757 89.9452 227.776 87.4132 222.835 87.4132H214.503V116H224.754C229.369 116 232.962 112.61 232.962 107.751ZM222.835 91.0886C225.489 91.0886 226.755 92.518 226.755 94.7641C226.755 95.7442 226.387 96.6426 225.693 97.4594C224.999 98.2762 224.182 98.6846 223.243 98.6846H218.506V91.0886H222.835ZM228.96 107.138C228.96 110.078 227.163 112.325 224.713 112.325H218.506V102.646H224.386C227.204 102.646 228.96 104.688 228.96 107.138ZM234.998 105.79C234.875 111.467 239.857 116.449 245.534 116.327C248.352 116.327 251.047 114.775 252.027 112.774V116H256.029V105.79C256.152 100.114 251.21 95.1316 245.534 95.2541C239.857 95.1316 234.875 100.114 234.998 105.79ZM252.068 105.79C252.068 109.507 249.25 112.447 245.575 112.447C241.899 112.447 239 109.507 239 105.79C239 102.074 241.858 99.1338 245.575 99.1338C249.291 99.1338 252.068 102.074 252.068 105.79ZM258.891 116H262.893V105.341C262.893 101.298 264.527 99.3788 267.467 99.3788H267.876V95.4992H267.467C262.281 95.4992 258.891 98.8071 258.891 105.341V116ZM281.2 99.4605V95.5808H276.79V88.2708H272.787V95.5808H269.765V99.4605H272.787V106.362C272.828 112.692 276.095 115.918 281.2 116.123V112.243C278.26 111.957 276.79 110.119 276.79 106.321V99.4605H281.2ZM292.749 95.2541C287.073 95.1316 282.254 100.155 282.376 105.831C282.254 111.508 287.114 116.449 292.872 116.327C296.956 116.327 300.631 113.999 302.428 110.446L297.65 110.405C296.384 111.753 294.75 112.447 292.749 112.447C289.482 112.447 286.991 110.323 286.664 107.261H303.163C303.245 106.73 303.286 106.117 303.286 105.423C303.122 99.2563 298.058 95.2541 292.749 95.2541ZM286.664 103.994C287.44 101.094 289.768 99.1338 292.872 99.1338C295.771 99.1338 298.222 101.176 298.998 103.994H286.664ZM305.512 116H309.514V105.341C309.514 101.298 311.148 99.3788 314.088 99.3788H314.497V95.4992H314.088C308.902 95.4992 305.512 98.8071 305.512 105.341V116ZM315.722 116H319.724V105.341C319.724 101.298 321.358 99.3788 324.298 99.3788H324.706V95.4992H324.298C319.111 95.4992 315.722 98.8071 315.722 105.341V116Z" fill="white"/>
<rect x="195.183" y="277.733" width="30.5822" height="146.945" rx="9" transform="rotate(-50.9001 195.183 277.733)" fill="#77C66C"/>
<path d="M308.5 283.959C329.3 301.159 359.167 304.126 371.5 303.459V359.959C342 347.459 304.5 379.459 281 377.459C266.167 376.197 240.167 376.793 229 375.459C205.4 384.659 206.833 368.959 210.5 359.959C174.1 359.959 188 344.959 199.5 337.459C166.3 339.459 167 324.459 178 320.959L266 293.459C240 283.459 234 274.959 235 267.459C236 259.959 282.5 262.459 308.5 283.959Z" fill="#A45259"/>
<path d="M362.5 296.959H410V362.959C387.2 368.159 368.833 365.126 362.5 362.959C367.7 340.159 364.667 309.459 362.5 296.959Z" fill="#CFA780"/>
<path d="M399.5 292.459H434.5V371.459L399.5 367.959C408.7 352.359 403.333 311.126 399.5 292.459Z" fill="#0616BD"/>
<rect x="163" y="317.335" width="75.15" height="146.945" rx="9" transform="rotate(-50.9001 163 317.335)" fill="#3A8967"/>
<path d="M120 521.754C99.1999 504.554 69.3332 501.588 56.9999 502.254V445.754C86.5 458.254 124 426.254 147.5 428.254C162.333 429.517 188.333 428.921 199.5 430.254C223.1 421.054 221.667 436.754 218 445.754C254.4 445.754 240.5 460.754 229 468.254C262.2 466.254 261.5 481.254 250.5 484.754L162.5 512.254C188.5 522.254 194.5 530.754 193.5 538.254C192.5 545.754 146 543.254 120 521.754Z" fill="#A45259"/>
<path d="M66 508.754H18.5V442.754C41.3 437.554 59.6667 440.588 66 442.754C60.8 465.554 63.8333 496.254 66 508.754Z" fill="#CFA780"/>
<path d="M29 513.254H-6V434.254L29 437.754C19.8 453.354 25.1667 494.588 29 513.254Z" fill="#0616BD"/>
<path d="M202.5 278.959L219 276.959L304.5 344.959L307.5 360.959L282 392.459L265 395.459L181 327.959L177 310.959L202.5 278.959Z" fill="#204C52"/>
<path d="M202.5 276.959L219 274.959L304.5 342.959L307.5 358.959L282 390.459L265 393.459L181 325.959L177 308.959L202.5 276.959Z" fill="#295F66"/>
<rect x="195.785" y="343.978" width="75.15" height="63.6583" rx="9" transform="rotate(-50.9001 195.785 343.978)" fill="#DFE3E4"/>
<rect x="197.226" y="345.149" width="67.624" height="59.9444" rx="9" transform="rotate(-50.9001 197.226 345.149)" fill="#DDE2E0"/>
<circle cx="279.5" cy="362.959" r="8.5" fill="#204C52"/>
<circle cx="279.5" cy="363.959" r="8.5" fill="#97C3BE"/>
<circle cx="204.5" cy="304.959" r="8.5" fill="#204C52"/>
<circle cx="204.5" cy="305.959" r="8.5" fill="#97C3BE"/>
<rect x="217.39" y="401.251" width="76.8433" height="113.504" rx="16" transform="rotate(39.463 217.39 401.251)" fill="#F2ECFB"/>
<rect x="218.663" y="404.066" width="72.8433" height="109.504" rx="14" transform="rotate(39.463 218.663 404.066)" fill="#DFE3E4" stroke="#DFE3E4" stroke-width="4"/>
<rect x="249.039" y="426.482" width="18.4585" height="113.504" transform="rotate(39.463 249.039 426.482)" fill="#494F4C"/>
<rect x="250.185" y="427.426" width="21.0087" height="113.504" transform="rotate(39.463 250.185 427.426)" fill="#57555E"/>
<path d="M238 322.412L242.012 337.384L264.228 331.431" stroke="#6B4849" stroke-width="6"/>
<path d="M238 320.412L242.012 335.384L264.228 329.431" stroke="#D18F74" stroke-width="6"/>
</g>
<defs>
<clipPath id="clip0_1_10033">
<path d="M0 33C0 14.7746 14.7746 0 33 0H395C413.225 0 428 14.7746 428 33V609H0V33Z" fill="white"/>
</clipPath>
<clipPath id="clip1_1_10033">
<rect width="85.4024" height="61.1808" fill="white" transform="translate(0 -26.312)"/>
</clipPath>
<clipPath id="clip2_1_10033">
<rect width="85.4024" height="61.1808" fill="white" transform="translate(85.6494 -26.312)"/>
</clipPath>
<clipPath id="clip3_1_10033">
<rect width="85.4024" height="61.1808" fill="white" transform="translate(171.299 -26.312)"/>
</clipPath>
<clipPath id="clip4_1_10033">
<rect width="85.4024" height="61.1808" fill="white" transform="translate(256.948 -26.312)"/>
</clipPath>
<clipPath id="clip5_1_10033">
<rect width="85.4024" height="61.1808" fill="white" transform="translate(342.598 -26.312)"/>
</clipPath>
<clipPath id="clip6_1_10033">
<rect width="85.4024" height="61.1808" fill="white" transform="translate(0 34.8687)"/>
</clipPath>
<clipPath id="clip7_1_10033">
<rect width="85.4024" height="61.1808" fill="white" transform="translate(85.6494 34.8687)"/>
</clipPath>
<clipPath id="clip8_1_10033">
<rect width="85.4024" height="61.1808" fill="white" transform="translate(171.299 34.8687)"/>
</clipPath>
<clipPath id="clip9_1_10033">
<rect width="85.4024" height="61.1808" fill="white" transform="translate(256.948 34.8687)"/>
</clipPath>
<clipPath id="clip10_1_10033">
<rect width="85.4024" height="61.1808" fill="white" transform="translate(342.598 34.8687)"/>
</clipPath>
<clipPath id="clip11_1_10033">
<rect width="85.4024" height="61.1808" fill="white" transform="translate(0 96.0496)"/>
</clipPath>
<clipPath id="clip12_1_10033">
<rect width="85.4024" height="61.1808" fill="white" transform="translate(85.6494 96.0496)"/>
</clipPath>
<clipPath id="clip13_1_10033">
<rect width="85.4024" height="61.1808" fill="white" transform="translate(171.299 96.0496)"/>
</clipPath>
<clipPath id="clip14_1_10033">
<rect width="85.4024" height="61.1808" fill="white" transform="translate(256.948 96.0496)"/>
</clipPath>
<clipPath id="clip15_1_10033">
<rect width="85.4024" height="61.1808" fill="white" transform="translate(342.598 96.0496)"/>
</clipPath>
<clipPath id="clip16_1_10033">
<rect width="85.4024" height="61.1808" fill="white" transform="translate(0 157.23)"/>
</clipPath>
<clipPath id="clip17_1_10033">
<rect width="85.4024" height="61.1808" fill="white" transform="translate(85.6494 157.23)"/>
</clipPath>
<clipPath id="clip18_1_10033">
<rect width="85.4024" height="61.1808" fill="white" transform="translate(171.299 157.23)"/>
</clipPath>
<clipPath id="clip19_1_10033">
<rect width="85.4024" height="61.1808" fill="white" transform="translate(256.948 157.23)"/>
</clipPath>
<clipPath id="clip20_1_10033">
<rect width="85.4024" height="61.1808" fill="white" transform="translate(342.598 157.23)"/>
</clipPath>
<clipPath id="clip21_1_10033">
<rect width="85.4024" height="61.1808" fill="white" transform="translate(0 218.411)"/>
</clipPath>
<clipPath id="clip22_1_10033">
<rect width="85.4024" height="61.1808" fill="white" transform="translate(85.6494 218.411)"/>
</clipPath>
<clipPath id="clip23_1_10033">
<rect width="85.4024" height="61.1808" fill="white" transform="translate(171.299 218.411)"/>
</clipPath>
<clipPath id="clip24_1_10033">
<rect width="85.4024" height="61.1808" fill="white" transform="translate(256.948 218.411)"/>
</clipPath>
<clipPath id="clip25_1_10033">
<rect width="85.4024" height="61.1808" fill="white" transform="translate(342.598 218.411)"/>
</clipPath>
<clipPath id="clip26_1_10033">
<rect width="85.4024" height="61.1808" fill="white" transform="translate(0 279.592)"/>
</clipPath>
<clipPath id="clip27_1_10033">
<rect width="85.4024" height="61.1808" fill="white" transform="translate(85.6494 279.592)"/>
</clipPath>
<clipPath id="clip28_1_10033">
<rect width="85.4024" height="61.1808" fill="white" transform="translate(171.299 279.592)"/>
</clipPath>
<clipPath id="clip29_1_10033">
<rect width="85.4024" height="61.1808" fill="white" transform="translate(256.948 279.592)"/>
</clipPath>
<clipPath id="clip30_1_10033">
<rect width="85.4024" height="61.1808" fill="white" transform="translate(342.598 279.592)"/>
</clipPath>
<clipPath id="clip31_1_10033">
<rect width="85.4024" height="61.1808" fill="white" transform="translate(0 340.773)"/>
</clipPath>
<clipPath id="clip32_1_10033">
<rect width="85.4024" height="61.1808" fill="white" transform="translate(85.6494 340.773)"/>
</clipPath>
<clipPath id="clip33_1_10033">
<rect width="85.4024" height="61.1808" fill="white" transform="translate(171.299 340.773)"/>
</clipPath>
<clipPath id="clip34_1_10033">
<rect width="85.4024" height="61.1808" fill="white" transform="translate(256.948 340.773)"/>
</clipPath>
<clipPath id="clip35_1_10033">
<rect width="85.4024" height="61.1808" fill="white" transform="translate(342.598 340.773)"/>
</clipPath>
<clipPath id="clip36_1_10033">
<rect width="85.4024" height="61.1808" fill="white" transform="translate(0 401.953)"/>
</clipPath>
<clipPath id="clip37_1_10033">
<rect width="85.4024" height="61.1808" fill="white" transform="translate(85.6494 401.953)"/>
</clipPath>
<clipPath id="clip38_1_10033">
<rect width="85.4024" height="61.1808" fill="white" transform="translate(171.299 401.953)"/>
</clipPath>
<clipPath id="clip39_1_10033">
<rect width="85.4024" height="61.1808" fill="white" transform="translate(256.948 401.953)"/>
</clipPath>
<clipPath id="clip40_1_10033">
<rect width="85.4024" height="61.1808" fill="white" transform="translate(342.598 401.953)"/>
</clipPath>
<clipPath id="clip41_1_10033">
<rect width="85.4024" height="61.1808" fill="white" transform="translate(0 463.134)"/>
</clipPath>
<clipPath id="clip42_1_10033">
<rect width="85.4024" height="61.1808" fill="white" transform="translate(85.6494 463.134)"/>
</clipPath>
<clipPath id="clip43_1_10033">
<rect width="85.4024" height="61.1808" fill="white" transform="translate(171.299 463.134)"/>
</clipPath>
<clipPath id="clip44_1_10033">
<rect width="85.4024" height="61.1808" fill="white" transform="translate(256.948 463.134)"/>
</clipPath>
<clipPath id="clip45_1_10033">
<rect width="85.4024" height="61.1808" fill="white" transform="translate(342.598 463.134)"/>
</clipPath>
<clipPath id="clip46_1_10033">
<rect width="85.4024" height="61.1808" fill="white" transform="translate(0 524.315)"/>
</clipPath>
<clipPath id="clip47_1_10033">
<rect width="85.4024" height="61.1808" fill="white" transform="translate(85.6494 524.315)"/>
</clipPath>
<clipPath id="clip48_1_10033">
<rect width="85.4024" height="61.1808" fill="white" transform="translate(171.299 524.315)"/>
</clipPath>
<clipPath id="clip49_1_10033">
<rect width="85.4024" height="61.1808" fill="white" transform="translate(256.948 524.315)"/>
</clipPath>
<clipPath id="clip50_1_10033">
<rect width="85.4024" height="61.1808" fill="white" transform="translate(342.598 524.315)"/>
</clipPath>
<clipPath id="clip51_1_10033">
<rect width="85.4024" height="61.1808" fill="white" transform="translate(0 585.496)"/>
</clipPath>
<clipPath id="clip52_1_10033">
<rect width="85.4024" height="61.1808" fill="white" transform="translate(85.6494 585.496)"/>
</clipPath>
<clipPath id="clip53_1_10033">
<rect width="85.4024" height="61.1808" fill="white" transform="translate(171.299 585.496)"/>
</clipPath>
<clipPath id="clip54_1_10033">
<rect width="85.4024" height="61.1808" fill="white" transform="translate(256.948 585.496)"/>
</clipPath>
<clipPath id="clip55_1_10033">
<rect width="85.4024" height="61.1808" fill="white" transform="translate(342.598 585.496)"/>
</clipPath>
<clipPath id="clip56_1_10033">
<rect width="53.6453" height="38.4306" fill="white" transform="translate(102 83.2847)"/>
</clipPath>
</defs>
</svg>
