<svg width="417" height="24" viewBox="0 0 417 24" fill="none" xmlns="http://www.w3.org/2000/svg">
<path d="M2 21.9703C3.54986 21.8295 5.02094 20.9791 6.38469 20.2972C11.2791 17.8501 16.1561 15.4656 21.1253 13.1721C26.0363 10.9055 32.2807 7.52762 37.8275 9.50861C40.9712 10.6313 42.3013 14.0855 43.4237 17.1818C43.618 17.7177 44.5761 21.3934 45.3853 21.3934C46.9227 21.3934 50.3491 17.8134 51.5585 16.951C61.0809 10.1611 72.6829 7.80156 83.8667 5.15277C87.5806 4.27316 87.9269 5.90799 88.9437 9.24899C89.3536 10.5957 89.6063 14.1495 91.2514 14.1818C100.724 14.3675 108.795 11.5573 117.675 8.41243C124.751 5.9062 130.692 6.65883 137.752 8.18166C139.935 8.65244 144.519 8.52495 145.57 10.8356C145.869 11.4935 146.649 14.1383 147.387 14.1818C155.324 14.6487 163.315 10.3847 170.868 8.52782C171.386 8.40059 185.249 5.33541 185.782 7.20088C186.376 9.28038 187.419 11.2759 188.118 13.3741C189.271 16.8311 193.954 14.8709 196.426 13.8933C200.884 12.131 205.886 11.8994 210.532 10.7779C215.534 9.57046 220.457 8.10185 225.446 6.85472C229.474 5.84764 233.847 5.11331 237.648 7.17203C239.822 8.34933 239.93 10.2364 240.85 12.3067C241.686 14.1879 255.48 11.0535 256.946 10.7202C264.037 9.10871 270.897 6.49203 277.918 4.60468C279.486 4.18323 284.518 1.83532 286.312 2.87388C288.139 3.93167 286.346 10.3104 288.216 10.5182C296.569 11.4463 305.631 9.36518 313.515 6.91241C320.366 4.78075 326.36 2.7585 333.563 2.7585C335.794 2.7585 335.671 3.28628 335.986 5.297C336.173 6.48993 336.132 11.7534 337.803 11.5567C344.736 10.7412 351.856 8.23643 358.371 5.90278C361.199 4.8899 366.374 1.65949 367.429 5.64316C367.912 7.4667 368.74 9.21042 369.217 11.0663C369.793 13.3035 371.425 12.8262 373.256 11.8452C378.284 9.15145 384.748 8.35392 390.362 7.92204C391.139 7.86228 392.426 7.15012 393.189 7.48934C394.192 7.93529 393.505 9.02353 395.179 8.98937C402.505 8.83986 408.401 3.62186 415.314 2.23926" stroke="#00FFC6" stroke-width="3" stroke-linecap="round"/>
</svg>
