<svg width="59" height="43" viewBox="0 0 59 43" fill="none" xmlns="http://www.w3.org/2000/svg">
<g clip-path="url(#clip0_1_8507)">
<path d="M58.7649 14.4954C58.7649 22.2594 52.4847 28.5396 44.7207 28.5396H37.8883L15.873 0.451172H44.7552C52.4847 0.451172 58.7649 6.73139 58.7649 14.4954Z" fill="#0217EB"/>
<path d="M49.5171 28.5058C49.5171 36.2698 43.2369 42.55 35.4729 42.55H0L22.0498 14.4961H35.5074C43.2369 14.4961 49.5171 20.7763 49.5171 28.5058Z" fill="#00FFC6"/>
<path opacity="0.49" d="M58.7649 14.4954C58.7649 22.2594 52.4847 28.5396 44.7207 28.5396H37.8883L15.873 0.451172H44.7552C52.4847 0.451172 58.7649 6.73139 58.7649 14.4954Z" fill="#0217EB"/>
</g>
<defs>
<clipPath id="clip0_1_8507">
<rect width="58.7649" height="42.0982" fill="white" transform="translate(0 0.451172)"/>
</clipPath>
</defs>
</svg>
