<svg width="344" height="79" viewBox="0 0 344 79" fill="none" xmlns="http://www.w3.org/2000/svg">
<g clip-path="url(#clip0_1_9606)">
<path d="M109.086 26.405C109.086 40.8175 97.4283 52.4756 83.0158 52.4756H70.3329L29.4655 0.334473H83.0799C97.4283 0.334473 109.086 11.9926 109.086 26.405Z" fill="white" fill-opacity="0.5"/>
<path d="M91.9194 52.4115C91.9194 66.824 80.2613 78.4821 65.8489 78.4821H-9.15527e-05L40.9313 26.405H65.9129C80.2613 26.405 91.9194 38.0631 91.9194 52.4115Z" fill="white" fill-opacity="0.5"/>
<path opacity="0.49" d="M109.086 26.405C109.086 40.8175 97.4283 52.4756 83.0158 52.4756H70.3329L29.4655 0.334473H83.0799C97.4283 0.334473 109.086 11.9926 109.086 26.405Z" fill="white"/>
</g>
<path d="M138.246 44.441C138.085 51.9287 144.603 58.5008 152.091 58.3392C159.524 58.5008 166.096 51.9287 165.989 44.441C166.096 36.9532 159.524 30.3812 152.091 30.5428C148.589 30.5428 145.68 31.9972 143.579 34.4213V20.1999H138.246V44.441ZM143.471 44.441C143.471 39.5389 147.242 35.6603 152.091 35.6603C156.939 35.6603 160.71 39.5389 160.71 44.441C160.71 49.343 156.939 53.2216 152.091 53.2216C147.242 53.2216 143.471 49.343 143.471 44.441ZM169.345 60.3323C171.231 65.4499 175.433 68.682 180.82 68.682C187.607 68.682 192.671 63.4028 192.671 56.5615V30.9737H187.392V45.4645C187.392 50.6359 185.075 53.2216 180.82 53.2216C176.564 53.2216 174.247 50.5282 174.247 45.1413V30.9737H168.968V45.1413C168.968 53.9219 173.655 58.3392 180.82 58.3392C183.459 58.3392 185.829 57.4234 187.338 55.7534V57.2079C187.338 60.9249 184.86 63.5644 180.82 63.5644C178.395 63.5644 176.564 62.4871 175.271 60.3323H169.345ZM220.252 47.0267C220.252 42.5017 217.881 39.1079 213.356 37.3303C215.565 35.8758 217.343 33.2901 217.343 29.1422C217.343 23.5398 213.41 20.1999 206.892 20.1999H195.903V57.9082H209.424C215.511 57.9082 220.252 53.4371 220.252 47.0267ZM206.892 25.0481C210.394 25.0481 212.063 26.9336 212.063 29.8963C212.063 31.1892 211.579 32.3743 210.663 33.4517C209.747 34.5291 208.67 35.0678 207.431 35.0678H201.182V25.0481H206.892ZM214.972 46.2186C214.972 50.0972 212.602 53.06 209.37 53.06H201.182V40.2931H208.939C212.656 40.2931 214.972 42.9865 214.972 46.2186ZM222.936 44.441C222.775 51.9287 229.347 58.5008 236.834 58.3392C240.551 58.3392 244.107 56.2921 245.4 53.6526V57.9082H250.679V44.441C250.84 36.9532 244.322 30.3812 236.834 30.5428C229.347 30.3812 222.775 36.9532 222.936 44.441ZM245.453 44.441C245.453 49.343 241.736 53.2216 236.888 53.2216C232.04 53.2216 228.215 49.343 228.215 44.441C228.215 39.5389 231.986 35.6603 236.888 35.6603C241.79 35.6603 245.453 39.5389 245.453 44.441ZM254.454 57.9082H259.733V43.8484C259.733 38.5154 261.888 35.9835 265.766 35.9835H266.305V30.866H265.766C258.925 30.866 254.454 35.2294 254.454 43.8484V57.9082ZM283.881 36.0913V30.9737H278.063V21.3312H272.784V30.9737H268.798V36.0913H272.784V45.1951C272.838 53.5448 277.147 57.8005 283.881 58.0698V52.9523C280.002 52.5752 278.063 50.1511 278.063 45.1413V36.0913H283.881ZM299.115 30.5428C291.628 30.3812 285.271 37.007 285.433 44.4948C285.271 51.9826 291.681 58.5008 299.277 58.3392C304.664 58.3392 309.512 55.2686 311.882 50.582L305.58 50.5282C303.91 52.3058 301.755 53.2216 299.115 53.2216C294.806 53.2216 291.52 50.4204 291.089 46.3802H312.852C312.96 45.6799 313.013 44.8719 313.013 43.9561C312.798 35.8219 306.118 30.5428 299.115 30.5428ZM291.089 42.0707C292.112 38.246 295.183 35.6603 299.277 35.6603C303.102 35.6603 306.334 38.3538 307.357 42.0707H291.089ZM315.951 57.9082H321.23V43.8484C321.23 38.5154 323.385 35.9835 327.263 35.9835H327.802V30.866H327.263C320.422 30.866 315.951 35.2294 315.951 43.8484V57.9082ZM329.418 57.9082H334.697V43.8484C334.697 38.5154 336.852 35.9835 340.73 35.9835H341.269V30.866H340.73C333.889 30.866 329.418 35.2294 329.418 43.8484V57.9082Z" fill="white"/>
<defs>
<clipPath id="clip0_1_9606">
<rect width="109.086" height="78.1476" fill="white" transform="translate(0 0.334473)"/>
</clipPath>
</defs>
</svg>
