<svg width="44" height="44" viewBox="0 0 44 44" fill="none" xmlns="http://www.w3.org/2000/svg">
<rect width="44" height="44" rx="12" fill="#0217EB" fill-opacity="0.1"/>
<mask id="mask0_9_1858" style="mask-type:alpha" maskUnits="userSpaceOnUse" x="10" y="10" width="24" height="24">
<rect x="10" y="10" width="24" height="24" fill="#D9D9D9"/>
</mask>
<g mask="url(#mask0_9_1858)">
<path d="M17 33C16.45 33 15.9792 32.8042 15.5875 32.4125C15.1958 32.0208 15 31.55 15 31V13C15 12.45 15.1958 11.9792 15.5875 11.5875C15.9792 11.1958 16.45 11 17 11H27C27.55 11 28.0208 11.1958 28.4125 11.5875C28.8042 11.9792 29 12.45 29 13V31C29 31.55 28.8042 32.0208 28.4125 32.4125C28.0208 32.8042 27.55 33 27 33H17ZM17 28V31H27V28H17ZM22 30.5C22.2833 30.5 22.5208 30.4042 22.7125 30.2125C22.9042 30.0208 23 29.7833 23 29.5C23 29.2167 22.9042 28.9792 22.7125 28.7875C22.5208 28.5958 22.2833 28.5 22 28.5C21.7167 28.5 21.4792 28.5958 21.2875 28.7875C21.0958 28.9792 21 29.2167 21 29.5C21 29.7833 21.0958 30.0208 21.2875 30.2125C21.4792 30.4042 21.7167 30.5 22 30.5ZM17 26H27V16H17V26ZM17 14H27V13H17V14Z" fill="#0217EB"/>
</g>
</svg>
