<svg version="1.1" id="Capa_1" xmlns="http://www.w3.org/2000/svg" xmlns:xlink="http://www.w3.org/1999/xlink" x="0px" y="0px" viewBox="0 0 512 512" style="enable-background:new 0 0 512 512;" xml:space="preserve">
<style type="text/css">
	.st0{fill:#2196F3;}
	.st1{fill:#FFC107;}
	.st2{fill:#F44336;}
	.st3{fill:#4CAF50;}
</style>
<g>
	<path class="st0" d="M274.1,255.9l-125,122.7c-6.6-5.1-10.5-13-10.5-21.3V154.8c0-8.4,3.8-16.3,10.5-21.3L274.1,255.9z" id="id_101" style="fill: rgb(1, 5, 50);"></path>
	<path class="st1" d="M373.3,255.9c0,9.7-5.2,18.7-13.7,23.5l-39.3,21.8l-46.3-45.2l46.3-45.2l39.3,22
		C368.1,237.4,373.3,246.3,373.3,255.9z" id="id_102" style="fill: rgb(1, 5, 50);"></path>
	<path class="st2" d="M320.4,301.2l-142.5,79.6c-3.9,2.1-8.3,3.2-12.8,3.2c-4.7,0.1-9.3-1.2-13.2-3.6c-1-0.5-1.9-1.1-2.8-1.7
		l125-122.7L320.4,301.2z" id="id_103" style="fill: rgb(1, 5, 50);"></path>
	<path class="st3" d="M320.4,210.7l-46.3,45.2l-125-122.5c0.9-0.6,1.8-1.2,2.8-1.7c8-4.8,17.9-5,26-0.4L320.4,210.7z" id="id_104" style="fill: rgb(1, 4, 50);"></path>
</g>
</svg>