<svg xmlns="http://www.w3.org/2000/svg" width="209.207" height="209.207" viewBox="0 0 209.207 209.207">
  <path id="_5046402361595501401" data-name="5046402361595501401" d="M208.218,25.909c-2.242-1.494-4.483-2.241-6.724-.747-32.128,10.46-65,2.242-89.66-20.921a7.223,7.223,0,0,0-10.46,0C76.717,27.4,43.841,35.622,11.713,25.162c-2.242-1.494-4.483-.747-6.725.747C3.494,27.4,2,29.645,2,31.887,2,149.192,53.554,188.044,103.615,210.459c.747.747,2.241.747,2.989.747s2.241,0,2.989-.747c50.06-22.415,101.615-61.268,101.615-178.573C211.207,29.645,209.712,27.4,208.218,25.909ZM149.192,89.418l-44.83,44.83a7.223,7.223,0,0,1-10.46,0L71.486,111.833a7.4,7.4,0,0,1,10.46-10.46l17.185,17.185,39.6-39.6a7.4,7.4,0,0,1,10.46,10.46Z" transform="translate(-2 -2)" fill="#fff"/>
</svg>
