<svg width="44" height="44" viewBox="0 0 44 44" fill="none" xmlns="http://www.w3.org/2000/svg">
<rect width="44" height="44" rx="12" fill="#0217EB" fill-opacity="0.1"/>
<mask id="mask0_9_1839" style="mask-type:alpha" maskUnits="userSpaceOnUse" x="10" y="10" width="24" height="24">
<rect x="10" y="10" width="24" height="24" fill="#D9D9D9"/>
</mask>
<g mask="url(#mask0_9_1839)">
<path d="M17.875 28C16.5917 28 15.6167 27.525 14.95 26.575C14.2833 25.625 13.9667 24.5583 14 23.375L13.55 22.7C13.3667 22.4167 13.0625 21.775 12.6375 20.775C12.2125 19.775 12 18.5167 12 17C12 15.2833 12.425 13.8542 13.275 12.7125C14.125 11.5708 15.2 11 16.5 11C17.9167 11 19.0208 11.6292 19.8125 12.8875C20.6042 14.1458 21 15.5167 21 17C21 17.9667 20.8667 18.8583 20.6 19.675C20.3333 20.4917 20.1 21.15 19.9 21.65L20.1 21.975C20.2333 22.2083 20.4167 22.5792 20.65 23.0875C20.8833 23.5958 21 24.125 21 24.675C21 25.625 20.7042 26.4167 20.1125 27.05C19.5208 27.6833 18.775 28 17.875 28ZM15.25 21.6L18 21.05C18.2167 20.5167 18.4375 19.9083 18.6625 19.225C18.8875 18.5417 19 17.8 19 17C19 16 18.7708 15.0833 18.3125 14.25C17.8542 13.4167 17.25 13 16.5 13C15.75 13 15.1458 13.4167 14.6875 14.25C14.2292 15.0833 14 16 14 17C14 18.05 14.1458 18.9792 14.4375 19.7875C14.7292 20.5958 15 21.2 15.25 21.6ZM17.875 26C18.1917 26 18.4583 25.8833 18.675 25.65C18.8917 25.4167 19 25.0917 19 24.675C19 24.3917 18.9333 24.1 18.8 23.8C18.6667 23.5 18.5333 23.2333 18.4 23L16 23.5C16 24.1667 16.1458 24.75 16.4375 25.25C16.7292 25.75 17.2083 26 17.875 26ZM26.125 33C25.225 33 24.4792 32.6833 23.8875 32.05C23.2958 31.4167 23 30.625 23 29.675C23 29.125 23.1167 28.5958 23.35 28.0875C23.5833 27.5792 23.7667 27.2083 23.9 26.975L24.1 26.65C23.9 26.15 23.6667 25.4917 23.4 24.675C23.1333 23.8583 23 22.9667 23 22C23 20.5167 23.3958 19.1458 24.1875 17.8875C24.9792 16.6292 26.0833 16 27.5 16C28.8 16 29.875 16.5708 30.725 17.7125C31.575 18.8542 32 20.2833 32 22C32 23.5167 31.7875 24.7708 31.3625 25.7625C30.9375 26.7542 30.6333 27.3917 30.45 27.675L30 28.375C30.0167 29.5583 29.6958 30.625 29.0375 31.575C28.3792 32.525 27.4083 33 26.125 33ZM28.75 26.6C29 26.2 29.2708 25.6 29.5625 24.8C29.8542 24 30 23.0667 30 22C30 21 29.7708 20.0833 29.3125 19.25C28.8542 18.4167 28.25 18 27.5 18C26.75 18 26.1458 18.4167 25.6875 19.25C25.2292 20.0833 25 21 25 22C25 22.8 25.1125 23.5375 25.3375 24.2125C25.5625 24.8875 25.7833 25.5 26 26.05L28.75 26.6ZM26.125 31C26.7917 31 27.2708 30.75 27.5625 30.25C27.8542 29.75 28 29.1667 28 28.5L25.6 28C25.4667 28.2333 25.3333 28.5 25.2 28.8C25.0667 29.1 25 29.3917 25 29.675C25 30.0083 25.1042 30.3125 25.3125 30.5875C25.5208 30.8625 25.7917 31 26.125 31Z" fill="#0217EB"/>
</g>
</svg>
