<svg xmlns="http://www.w3.org/2000/svg" width="349.978" height="245.201" viewBox="0 0 349.978 245.201">
  <path id="_19903277551560147112" data-name="19903277551560147112" d="M282,92.578a17.5,17.5,0,0,0-17.5-17.5H61.652L101.907,35A17.574,17.574,0,0,0,77.054,10.143L7.046,80.151A17.611,17.611,0,0,0,19.473,110.08H264.5A17.5,17.5,0,0,0,282,92.578Zm68.608,63.357a17.5,17.5,0,0,0-16.1-10.851H89.481a17.5,17.5,0,0,0,0,35H292.329l-40.255,40.08a17.574,17.574,0,1,0,24.853,24.853l70.008-70.008A17.5,17.5,0,0,0,350.611,155.935Z" transform="translate(-2.002 -4.996)" fill="#fff"/>
</svg>
